<svg width="54" height="53" viewBox="0 0 54 53" fill="none" xmlns="http://www.w3.org/2000/svg">
<path fill-rule="evenodd" clip-rule="evenodd" d="M16.2706 0.393402C19.0839 0.263888 19.9809 0.235107 27.1474 0.235107C34.3138 0.235107 35.2108 0.266287 38.0218 0.393402C40.8327 0.520518 42.7514 0.96902 44.4303 1.61899C46.1883 2.28335 47.7833 3.32186 49.1024 4.66497C50.4455 5.98169 51.4816 7.57424 52.1436 9.33467C52.796 11.0136 53.2421 12.9323 53.3716 15.7384C53.5011 18.5565 53.5299 19.4536 53.5299 26.6176C53.5299 33.784 53.4987 34.681 53.3716 37.4944C53.2445 40.3005 52.796 42.2192 52.1436 43.8981C51.4816 45.6588 50.4438 47.254 49.1024 48.5726C47.7833 49.9157 46.1883 50.9518 44.4303 51.6138C42.7514 52.2662 40.8327 52.7123 38.0266 52.8418C35.2108 52.9713 34.3138 53.0001 27.1474 53.0001C19.9809 53.0001 19.0839 52.9689 16.2706 52.8418C13.4645 52.7147 11.5457 52.2662 9.86685 51.6138C8.10623 50.9518 6.51105 49.9139 5.19235 48.5726C3.85016 47.2551 2.81149 45.6607 2.14877 43.9005C1.49881 42.2216 1.0527 40.3029 0.923187 37.4968C0.793673 34.6786 0.764893 33.7816 0.764893 26.6176C0.764893 19.4512 0.796072 18.5541 0.923187 15.7432C1.0503 12.9323 1.49881 11.0136 2.14877 9.33467C2.81247 7.57443 3.85193 5.98005 5.19475 4.66257C6.51158 3.32066 8.10515 2.28201 9.86445 1.61899C11.5433 0.96902 13.4621 0.522916 16.2682 0.393402H16.2706ZM37.8083 5.14225C35.0261 5.01513 34.1915 4.98875 27.1474 4.98875C20.1033 4.98875 19.2686 5.01513 16.4865 5.14225C13.913 5.25977 12.5171 5.68909 11.5865 6.05125C10.3561 6.53093 9.47591 7.09935 8.55252 8.02274C7.67721 8.8743 7.00358 9.91096 6.58103 11.0567C6.21887 11.9873 5.78956 13.3832 5.67204 15.9567C5.54492 18.7388 5.51854 19.5735 5.51854 26.6176C5.51854 33.6617 5.54492 34.4964 5.67204 37.2785C5.78956 39.852 6.21887 41.2479 6.58103 42.1785C7.00315 43.3225 7.6771 44.361 8.55252 45.2125C9.40396 46.0879 10.4425 46.7618 11.5865 47.1839C12.5171 47.5461 13.913 47.9754 16.4865 48.0929C19.2686 48.2201 20.1009 48.2464 27.1474 48.2464C34.1939 48.2464 35.0261 48.2201 37.8083 48.0929C40.3818 47.9754 41.7777 47.5461 42.7083 47.1839C43.9386 46.7043 44.8189 46.1358 45.7422 45.2125C46.6177 44.361 47.2916 43.3225 47.7137 42.1785C48.0759 41.2479 48.5052 39.852 48.6227 37.2785C48.7498 34.4964 48.7762 33.6617 48.7762 26.6176C48.7762 19.5735 48.7498 18.7388 48.6227 15.9567C48.5052 13.3832 48.0759 11.9873 47.7137 11.0567C47.2341 9.82634 46.6656 8.94613 45.7422 8.02274C44.8906 7.14749 43.854 6.47387 42.7083 6.05125C41.7777 5.68909 40.3818 5.25977 37.8083 5.14225ZM23.7776 34.7506C25.6595 35.534 27.7551 35.6397 29.7063 35.0497C31.6575 34.4597 33.3434 33.2106 34.476 31.5157C35.6086 29.8208 36.1176 27.7853 35.9161 25.7568C35.7146 23.7283 34.8151 21.8327 33.3713 20.3937C32.4508 19.4739 31.3379 18.7696 30.1126 18.3314C28.8873 17.8933 27.5801 17.7324 26.2851 17.8601C24.9902 17.9878 23.7396 18.4011 22.6235 19.0701C21.5074 19.7392 20.5535 20.6473 19.8306 21.7293C19.1076 22.8112 18.6335 24.04 18.4424 25.3272C18.2513 26.6143 18.348 27.9278 18.7255 29.1731C19.1029 30.4184 19.7518 31.5646 20.6254 32.529C21.499 33.4934 22.5756 34.2522 23.7776 34.7506ZM17.5585 17.0288C18.8178 15.7695 20.3127 14.7707 21.9579 14.0892C23.6032 13.4077 25.3666 13.0569 27.1474 13.0569C28.9282 13.0569 30.6916 13.4077 32.3368 14.0892C33.9821 14.7707 35.477 15.7695 36.7362 17.0288C37.9954 18.288 38.9943 19.7829 39.6758 21.4282C40.3573 23.0734 40.708 24.8368 40.708 26.6176C40.708 28.3984 40.3573 30.1618 39.6758 31.807C38.9943 33.4523 37.9954 34.9472 36.7362 36.2064C34.1931 38.7495 30.7439 40.1783 27.1474 40.1783C23.5509 40.1783 20.1017 38.7495 17.5585 36.2064C15.0154 33.6633 13.5867 30.2141 13.5867 26.6176C13.5867 23.0211 15.0154 19.5719 17.5585 17.0288ZM43.7156 15.0765C44.0276 14.7821 44.2774 14.4281 44.4502 14.0355C44.623 13.6428 44.7153 13.2195 44.7215 12.7906C44.7278 12.3617 44.6479 11.9359 44.4866 11.5383C44.3254 11.1408 44.086 10.7797 43.7826 10.4764C43.4793 10.1731 43.1182 9.93369 42.7207 9.77242C42.3232 9.61115 41.8974 9.53128 41.4684 9.53753C41.0395 9.54379 40.6162 9.63604 40.2236 9.80882C39.8309 9.98161 39.477 10.2314 39.1826 10.5435C38.6101 11.1503 38.2967 11.9564 38.3089 12.7906C38.321 13.6248 38.6578 14.4214 39.2477 15.0113C39.8376 15.6012 40.6343 15.938 41.4684 15.9502C42.3026 15.9624 43.1087 15.6489 43.7156 15.0765Z" fill="#007BB6"/>
</svg>
