<svg width="24" height="30" viewBox="0 0 24 30" fill="none" xmlns="http://www.w3.org/2000/svg">
<path d="M23.593 8.24884C23.9705 7.16791 24.0382 6.00298 23.7886 4.88558C23.539 3.76818 22.9819 2.74282 22.1803 1.92529C21.3955 1.09186 20.3931 0.494611 19.2866 0.201042C18.18 -0.0925267 17.0134 -0.0707057 15.9186 0.264039L12.9546 1.13699C12.3314 1.32101 11.6684 1.32101 11.0452 1.13699L8.08168 0.264067C6.98688 -0.0706422 5.82028 -0.0924453 4.71374 0.201122C3.6072 0.494689 2.60483 1.09192 1.81993 1.92532C1.01835 2.74285 0.461308 3.7682 0.211686 4.88559C-0.0379356 6.00299 0.0298105 7.16791 0.407275 8.24884L2.4379 14.2538C2.67846 14.9763 2.67169 15.7584 2.41867 16.4767C1.80497 18.3409 1.57233 20.3094 1.73456 22.2653C1.89679 24.2212 2.4506 26.1246 3.36305 27.8622L4.00576 29.0785C4.15349 29.3668 4.38066 29.6068 4.66042 29.7702C4.94019 29.9335 5.26087 30.0134 5.58458 30.0004C5.90784 29.9926 6.22236 29.8939 6.49206 29.7155C6.76177 29.5372 6.97572 29.2864 7.10939 28.9919L10.316 21.9955C10.4638 21.673 10.701 21.3997 10.9996 21.2081C11.2981 21.0165 11.6454 20.9147 12.0001 20.9147C12.3549 20.9147 12.7021 21.0165 13.0007 21.2081C13.2992 21.3997 13.5365 21.673 13.6842 21.9955L16.8909 28.9919C17.0246 29.2864 17.2385 29.5372 17.5082 29.7155C17.7779 29.8939 18.0924 29.9926 18.4157 30.0004L18.4656 30.0013C18.7805 30.0023 19.0897 29.9168 19.3593 29.754C19.6289 29.5913 19.8487 29.3576 19.9945 29.0785L20.5965 27.94C21.5216 26.1787 22.0832 24.2493 22.2479 22.2666C22.4127 20.2839 22.1772 18.2884 21.5555 16.3985C21.3261 15.7016 21.3285 14.9492 21.5624 14.2538L23.593 8.24884ZM20.6656 16.6937C21.2479 18.4635 21.4684 20.3324 21.3141 22.1892C21.1598 24.046 20.6339 25.8529 19.7675 27.5024L19.166 28.6408C19.1009 28.7752 18.9972 28.8872 18.8683 28.9624C18.7393 29.0377 18.5908 29.0728 18.4418 29.0634C18.2934 29.061 18.1487 29.0162 18.025 28.9343C17.9012 28.8523 17.8034 28.7367 17.7432 28.601L14.5366 21.6046C14.3139 21.119 13.9566 20.7075 13.507 20.419C13.0573 20.1306 12.5343 19.9772 12.0001 19.9772C11.4659 19.9772 10.943 20.1306 10.4933 20.419C10.0437 20.7075 9.68634 21.119 9.46368 21.6046L6.25701 28.601C6.19683 28.7367 6.09908 28.8523 5.9753 28.9343C5.85152 29.0162 5.70688 29.061 5.55846 29.0634C5.40978 29.0711 5.26208 29.0352 5.13351 28.9601C5.00493 28.8851 4.90108 28.7741 4.83471 28.6408L4.19201 27.4246C3.33502 25.7877 2.81699 23.9948 2.6689 22.1531C2.52081 20.3114 2.74571 18.4588 3.33014 16.706C3.63024 15.8128 3.6288 14.8458 3.32602 13.9535L1.2954 7.94859C0.974684 7.03003 0.917115 6.04011 1.12919 5.09057C1.34127 4.14103 1.81454 3.26968 2.49559 2.57486C3.16268 1.86668 4.01454 1.35918 4.95491 1.10971C5.89529 0.860234 6.88669 0.878736 7.8171 1.16312L10.7802 2.03607C11.0346 2.10803 11.2951 2.15639 11.5585 2.18055C10.9725 2.79416 10.5642 3.55543 10.3773 4.38303C10.3505 4.50443 10.3731 4.6315 10.4399 4.73631C10.5068 4.84112 10.6125 4.91509 10.7339 4.94196C10.7673 4.94918 10.8014 4.95286 10.8355 4.95294C10.9422 4.95283 11.0457 4.91634 11.1288 4.84952C11.2119 4.78269 11.2698 4.68951 11.2928 4.58536C11.4208 4.01677 11.6788 3.48557 12.0465 3.03342C12.4143 2.58127 12.8818 2.22046 13.4123 1.97931L16.1831 1.16311C17.1136 0.878867 18.1049 0.860436 19.0453 1.1099C19.9856 1.35936 20.8375 1.86679 21.5046 2.57485C22.1857 3.26966 22.659 4.14101 22.8711 5.09054C23.0831 6.04007 23.0256 7.02998 22.7049 7.94854L20.6743 13.9535C20.3757 14.842 20.3727 15.8033 20.6656 16.6937Z" fill="black"/>
</svg>
