<svg width="54" height="53" viewBox="0 0 54 53" fill="none" xmlns="http://www.w3.org/2000/svg">
<path fill-rule="evenodd" clip-rule="evenodd" d="M16.2706 0.275727C19.0839 0.146212 19.9809 0.117432 27.1474 0.117432C34.3138 0.117432 35.2108 0.148611 38.0218 0.275727C40.8327 0.402842 42.7514 0.851345 44.4303 1.50131C46.1883 2.16567 47.7833 3.20418 49.1024 4.54729C50.4455 5.86402 51.4816 7.45656 52.1436 9.21699C52.796 10.8959 53.2421 12.8146 53.3716 15.6207C53.5011 18.4389 53.5299 19.3359 53.5299 26.4999C53.5299 33.6664 53.4987 34.5634 53.3716 37.3767C53.2445 40.1828 52.796 42.1016 52.1436 43.7804C51.4816 45.5411 50.4438 47.1363 49.1024 48.4549C47.7833 49.7981 46.1883 50.8342 44.4303 51.4961C42.7514 52.1485 40.8327 52.5946 38.0266 52.7241C35.2108 52.8536 34.3138 52.8824 27.1474 52.8824C19.9809 52.8824 19.0839 52.8512 16.2706 52.7241C13.4645 52.597 11.5457 52.1485 9.86685 51.4961C8.10623 50.8341 6.51105 49.7963 5.19235 48.4549C3.85016 47.1374 2.81149 45.543 2.14877 43.7828C1.49881 42.104 1.0527 40.1852 0.923187 37.3791C0.793673 34.561 0.764893 33.664 0.764893 26.4999C0.764893 19.3335 0.796072 18.4365 0.923187 15.6255C1.0503 12.8146 1.49881 10.8959 2.14877 9.21699C2.81247 7.45676 3.85193 5.86237 5.19475 4.54489C6.51158 3.20299 8.10515 2.16434 9.86445 1.50131C11.5433 0.851345 13.4621 0.405241 16.2682 0.275727H16.2706ZM37.8083 5.02457C35.0261 4.89746 34.1915 4.87108 27.1474 4.87108C20.1033 4.87108 19.2686 4.89746 16.4865 5.02457C13.913 5.1421 12.5171 5.57141 11.5865 5.93357C10.3561 6.41325 9.47591 6.98168 8.55252 7.90506C7.67721 8.75662 7.00358 9.79329 6.58103 10.939C6.21887 11.8696 5.78956 13.2655 5.67204 15.839C5.54492 18.6211 5.51854 19.4558 5.51854 26.4999C5.51854 33.544 5.54492 34.3787 5.67204 37.1608C5.78956 39.7343 6.21887 41.1302 6.58103 42.0608C7.00315 43.2048 7.6771 44.2433 8.55252 45.0948C9.40396 45.9702 10.4425 46.6442 11.5865 47.0663C12.5171 47.4284 13.913 47.8577 16.4865 47.9753C19.2686 48.1024 20.1009 48.1288 27.1474 48.1288C34.1939 48.1288 35.0261 48.1024 37.8083 47.9753C40.3818 47.8577 41.7777 47.4284 42.7083 47.0663C43.9386 46.5866 44.8189 46.0182 45.7422 45.0948C46.6177 44.2433 47.2916 43.2048 47.7137 42.0608C48.0759 41.1302 48.5052 39.7343 48.6227 37.1608C48.7498 34.3787 48.7762 33.544 48.7762 26.4999C48.7762 19.4558 48.7498 18.6211 48.6227 15.839C48.5052 13.2655 48.0759 11.8696 47.7137 10.939C47.2341 9.70867 46.6656 8.82845 45.7422 7.90506C44.8906 7.02981 43.854 6.3562 42.7083 5.93357C41.7777 5.57141 40.3818 5.1421 37.8083 5.02457ZM23.7776 34.6329C25.6595 35.4163 27.7551 35.522 29.7063 34.9321C31.6575 34.3421 33.3434 33.0929 34.476 31.3981C35.6086 29.7032 36.1176 27.6676 35.9161 25.6391C35.7146 23.6107 34.8151 21.715 33.3713 20.2761C32.4508 19.3562 31.3379 18.6519 30.1126 18.2138C28.8873 17.7757 27.5801 17.6147 26.2851 17.7424C24.9902 17.8701 23.7396 18.2834 22.6235 18.9524C21.5074 19.6215 20.5535 20.5297 19.8306 21.6116C19.1076 22.6935 18.6335 23.9223 18.4424 25.2095C18.2513 26.4966 18.348 27.8102 18.7255 29.0555C19.1029 30.3008 19.7518 31.4469 20.6254 32.4113C21.499 33.3758 22.5756 34.1345 23.7776 34.6329ZM17.5585 16.9111C18.8178 15.6519 20.3127 14.653 21.9579 13.9715C23.6032 13.29 25.3666 12.9393 27.1474 12.9393C28.9282 12.9393 30.6916 13.29 32.3368 13.9715C33.9821 14.653 35.477 15.6519 36.7362 16.9111C37.9954 18.1703 38.9943 19.6652 39.6758 21.3105C40.3573 22.9557 40.708 24.7191 40.708 26.4999C40.708 28.2807 40.3573 30.0441 39.6758 31.6894C38.9943 33.3346 37.9954 34.8295 36.7362 36.0888C34.1931 38.6319 30.7439 40.0606 27.1474 40.0606C23.5509 40.0606 20.1017 38.6319 17.5585 36.0888C15.0154 33.5456 13.5867 30.0964 13.5867 26.4999C13.5867 22.9034 15.0154 19.4542 17.5585 16.9111ZM43.7156 14.9588C44.0276 14.6644 44.2774 14.3104 44.4502 13.9178C44.623 13.5252 44.7153 13.1019 44.7215 12.6729C44.7278 12.244 44.6479 11.8182 44.4866 11.4207C44.3254 11.0232 44.086 10.6621 43.7826 10.3587C43.4793 10.0554 43.1182 9.81601 42.7207 9.65474C42.3232 9.49347 41.8974 9.4136 41.4684 9.41986C41.0395 9.42611 40.6162 9.51836 40.2236 9.69115C39.8309 9.86394 39.477 10.1137 39.1826 10.4258C38.6101 11.0327 38.2967 11.8387 38.3089 12.6729C38.321 13.5071 38.6578 14.3037 39.2477 14.8936C39.8376 15.4836 40.6343 15.8204 41.4684 15.8325C42.3026 15.8447 43.1087 15.5313 43.7156 14.9588Z" fill="white"/>
</svg>
