<svg width="106" height="106" viewBox="0 0 106 106" fill="none" xmlns="http://www.w3.org/2000/svg">
<circle cx="53" cy="53" r="52" stroke="#007BB6" stroke-width="2"/>
<path fill-rule="evenodd" clip-rule="evenodd" d="M46.5834 18.9166C45.2076 18.9166 43.8881 19.4632 42.9153 20.436C41.9424 21.4089 41.3959 22.7283 41.3959 24.1041H36.2084C34.8326 24.1041 33.5131 24.6507 32.5403 25.6235C31.5674 26.5964 31.0209 27.9158 31.0209 29.2916V77.7083C31.0209 79.0841 31.5674 80.4036 32.5403 81.3764C33.5131 82.3493 34.8326 82.8958 36.2084 82.8958H56.9584V79.4375H36.2084C35.7498 79.4375 35.31 79.2553 34.9857 78.931C34.6614 78.6067 34.4792 78.1669 34.4792 77.7083V29.2916C34.4792 28.833 34.6614 28.3932 34.9857 28.0689C35.31 27.7446 35.7498 27.5625 36.2084 27.5625H41.3959C41.3959 28.9383 41.9424 30.2577 42.9153 31.2306C43.8881 32.2034 45.2076 32.75 46.5834 32.75H60.4167C61.7925 32.75 63.112 32.2034 64.0848 31.2306C65.0577 30.2577 65.6042 28.9383 65.6042 27.5625H70.7917C71.2503 27.5625 71.6901 27.7446 72.0144 28.0689C72.3387 28.3932 72.5209 28.833 72.5209 29.2916V55.2291H75.9792V29.2916C75.9792 27.9158 75.4327 26.5964 74.4598 25.6235C73.487 24.6507 72.1675 24.1041 70.7917 24.1041H65.6042C65.6042 22.7283 65.0577 21.4089 64.0848 20.436C63.112 19.4632 61.7925 18.9166 60.4167 18.9166H46.5834ZM44.8542 24.1041C44.8542 23.6455 45.0364 23.2057 45.3607 22.8814C45.6849 22.5571 46.1248 22.375 46.5834 22.375H60.4167C60.8753 22.375 61.3151 22.5571 61.6394 22.8814C61.9637 23.2057 62.1459 23.6455 62.1459 24.1041V27.5625C62.1459 28.0211 61.9637 28.4609 61.6394 28.7852C61.3151 29.1094 60.8753 29.2916 60.4167 29.2916H46.5834C46.1248 29.2916 45.6849 29.1094 45.3607 28.7852C45.0364 28.4609 44.8542 28.0211 44.8542 27.5625V24.1041ZM51.7709 44.8541V39.6666H55.2292V44.8541H60.4167V48.3125H55.2292V53.5H51.7709V48.3125H46.5834V44.8541H51.7709ZM58.6875 60.4166C58.6875 59.958 58.8697 59.5182 59.194 59.1939C59.5183 58.8696 59.9581 58.6875 60.4167 58.6875H81.1667C81.6253 58.6875 82.0651 58.8696 82.3894 59.1939C82.7137 59.5182 82.8959 59.958 82.8959 60.4166V72.1559C82.8958 74.1485 82.4038 76.1102 81.4636 77.867C80.5233 79.6238 79.164 81.1213 77.5061 82.2266L71.7514 86.0654C71.4672 86.2549 71.1333 86.3561 70.7917 86.3561C70.4501 86.3561 70.1162 86.2549 69.832 86.0654L64.0774 82.2266C62.4197 81.1215 61.0605 79.6242 60.1202 77.8678C59.18 76.1113 58.6879 74.1499 58.6875 72.1577V60.4166ZM62.1459 62.1458V72.1559C62.146 73.5793 62.4976 74.9806 63.1694 76.2354C63.8411 77.4903 64.8123 78.5599 65.9967 79.3493L70.7917 82.55L75.5867 79.351C76.7711 78.5616 77.7423 77.492 78.414 76.2372C79.0858 74.9823 79.4374 73.581 79.4375 72.1577V62.1458H62.1459ZM70.2851 75.4725L77.2017 68.5558L74.7567 66.1108L69.0625 71.8049L66.8267 69.5691L64.3817 72.0141L67.84 75.4725C68.1643 75.7966 68.604 75.9788 69.0625 75.9788C69.5211 75.9788 69.9608 75.7966 70.2851 75.4725Z" fill="#007BB6"/>
</svg>
