<svg width="106" height="106" viewBox="0 0 106 106" fill="none" xmlns="http://www.w3.org/2000/svg">
<circle cx="53" cy="53" r="52" stroke="#007BB6" stroke-width="2"/>
<path fill-rule="evenodd" clip-rule="evenodd" d="M44.8542 63.875C44.8542 63.875 42.2656 60.2403 41.3958 60.4391C32.0514 62.566 22.375 68.708 22.375 75.2356V84.625H84.625V75.2356C84.625 68.708 74.9486 62.566 65.6042 60.4391C64.7344 60.2403 62.1458 63.875 62.1458 63.875H44.8542ZM56.4136 67.3333H43.0731L42.0391 65.8808L42.0218 65.8584L41.9526 65.7632C41.5537 65.2202 41.1343 64.6924 40.6955 64.1811C36.9173 65.2237 33.2186 66.9391 30.4208 68.9812C27.0956 71.4055 25.8333 73.6742 25.8333 75.2356V81.1667H81.1667V75.2356C81.1667 73.6742 79.9044 71.4055 76.5809 68.9812C73.7831 66.9408 70.0844 65.2237 66.3062 64.1811L66.1765 64.3298C65.783 64.7928 65.4069 65.2704 65.0491 65.7615L64.9799 65.8584L64.9626 65.8791V65.8808L63.9286 67.3333H56.4136Z" fill="#007BB6"/>
<path fill-rule="evenodd" clip-rule="evenodd" d="M67.3334 77.7084V67.3334H70.7917V77.7084H67.3334Z" fill="#007BB6"/>
<path fill-rule="evenodd" clip-rule="evenodd" d="M74.25 74.25H63.875V70.7917H74.25V74.25ZM53.5 53.5C57.1689 53.5 60.6874 52.0426 63.2817 49.4483C65.8759 46.8541 67.3334 43.3355 67.3334 39.6667C67.3334 35.9978 65.8759 32.4793 63.2817 29.885C60.6874 27.2908 57.1689 25.8333 53.5 25.8333C49.8312 25.8333 46.3126 27.2908 43.7184 29.885C41.1241 32.4793 39.6667 35.9978 39.6667 39.6667C39.6667 43.3355 41.1241 46.8541 43.7184 49.4483C46.3126 52.0426 49.8312 53.5 53.5 53.5ZM53.5 56.9583C63.0502 56.9583 70.7917 49.2169 70.7917 39.6667C70.7917 30.1165 63.0502 22.375 53.5 22.375C43.9499 22.375 36.2084 30.1165 36.2084 39.6667C36.2084 49.2169 43.9499 56.9583 53.5 56.9583Z" fill="#007BB6"/>
</svg>
