<svg width="106" height="106" viewBox="0 0 106 106" fill="none" xmlns="http://www.w3.org/2000/svg">
<circle cx="53" cy="53" r="52" stroke="#007BB6" stroke-width="2"/>
<path fill-rule="evenodd" clip-rule="evenodd" d="M75.6784 35.591L71.6563 22.5669L67.6343 35.591L59.853 39.2966L67.6689 43.0177L71.6563 54.413L75.6438 43.0177L83.4596 39.2966L75.6784 35.591ZM70.4909 38.0602L71.6563 34.2872L72.8218 38.062L75.4155 39.2966L72.8564 40.5156L71.6563 43.9429L70.4563 40.5156L67.8971 39.2966L70.4909 38.062V38.0602Z" fill="#007BB6"/>
<path d="M44.8542 39.6667L46.5834 32.75L48.3126 39.6667L53.5001 41.3958L48.3126 43.125L46.5834 50.0417L44.8542 43.125L39.6667 41.3958L44.8542 39.6667Z" fill="#007BB6"/>
<path fill-rule="evenodd" clip-rule="evenodd" d="M34.4792 80.7343V81.1597C34.4792 82.0769 34.1148 82.9566 33.4662 83.6051C32.8177 84.2537 31.938 84.618 31.0208 84.618H25.8333C24.9161 84.618 24.0365 84.2537 23.3879 83.6051C22.7394 82.9566 22.375 82.0769 22.375 81.1597V62.1475C22.375 61.2303 22.7394 60.3507 23.3879 59.7021C24.0365 59.0536 24.9161 58.6892 25.8333 58.6892H31.0208C31.7997 58.6889 32.5559 58.9514 33.1669 59.4344C33.7779 59.9174 34.208 60.5925 34.3875 61.3504C36.6769 60.5256 39.352 59.5434 40.1699 59.1699C40.865 58.8535 41.6673 58.7463 42.3348 58.7065C43.0236 58.6731 43.7139 58.6852 44.4011 58.7428C45.1706 58.8041 45.9369 58.9011 46.6975 59.0333L46.7372 59.0402L46.7493 59.0419H46.7545L46.7856 59.0489L58.3538 61.6426L58.4247 61.6668L58.4437 61.6737L58.5232 61.6979C59.0223 61.8442 59.5264 61.9729 60.0345 62.0836C61.0288 62.2997 62.2824 62.502 63.4496 62.502C64.5286 62.502 65.6457 62.9049 66.2405 63.9977C66.7523 64.9349 66.633 65.9655 66.4428 66.6779C66.2025 67.5667 65.7079 68.5005 65.0802 69.2942C65.9275 68.9743 66.8561 68.5956 67.8521 68.1875L68.0648 68.1011C70.8712 66.9477 74.1981 65.5817 77.1343 65.0975C80.4888 64.5424 82.9287 65.7598 84.0354 67.9195C85.021 69.8423 84.7927 72.3652 83.3091 73.8851C82.9373 74.2673 82.3702 74.6684 81.8013 75.0367C81.1926 75.4327 80.4439 75.8771 79.6122 76.3509C77.7014 77.4209 75.7672 78.4483 73.8108 79.4323C69.7092 81.5125 65.4105 83.5356 64.0445 84.0353C62.4605 84.6146 60.759 84.6699 59.125 84.5852C58.1382 84.5239 57.1529 84.4403 56.1698 84.3345C55.4501 84.26 54.7296 84.1937 54.0084 84.1356C50.6745 83.8832 48.1154 83.0687 45.7603 82.32L45.4732 82.2283C43.0385 81.4571 40.7733 80.7707 37.7732 80.6496C37.0885 80.6219 35.719 80.6738 34.4792 80.7326V80.7343ZM41.6033 62.317C41.7157 62.2651 42.0097 62.1908 42.5336 62.1596C43.0247 62.1302 43.585 62.1493 44.1331 62.1908C44.789 62.2435 45.4421 62.326 46.0905 62.438H46.0957L57.4511 64.9851L57.529 65.0093C58.1131 65.1812 58.7031 65.3323 59.2979 65.4623C60.3095 65.6837 61.6669 65.9154 63.0485 65.9552C62.9251 66.288 62.7595 66.6035 62.5556 66.8941C62.279 67.2953 61.9764 67.6048 61.7274 67.7829C61.008 68.2982 60.427 68.5126 60.0743 68.6042C59.9542 68.6371 59.8316 68.6603 59.7077 68.6734H59.6697L50.3979 68.5627L50.0693 71.9934L50.3771 70.2919L50.0693 71.9934L50.161 72.0107L50.4255 72.0574L51.387 72.2268C52.1945 72.3686 53.3029 72.5588 54.5098 72.756C56.8857 73.1433 59.7492 73.5721 61.3746 73.6707C62.4986 73.7399 63.8058 73.394 65.0214 72.9877C66.2889 72.564 67.7224 71.9778 69.1645 71.3865C72.1335 70.1691 75.1578 68.9293 77.698 68.5091C79.894 68.146 80.6773 68.9483 80.9574 69.4965C81.3603 70.2833 81.1425 71.1565 80.8329 71.4712C80.7586 71.549 80.4871 71.7686 79.9199 72.1369C79.3908 72.4776 78.7078 72.8874 77.9055 73.3422C76.0419 74.3855 74.1555 75.3875 72.2476 76.3474C68.1115 78.4449 63.996 80.3695 62.8548 80.7879C61.9314 81.1269 60.7884 81.2081 59.3031 81.132C58.4281 81.0805 57.5545 81.0061 56.6834 80.909C55.8798 80.8244 55.0751 80.7507 54.2695 80.6877C51.3437 80.4663 49.12 79.7591 46.7355 79.0017L46.5194 78.9326C44.0501 78.1492 41.4079 77.3348 37.9133 77.1947C37.1265 77.1636 35.7259 77.212 34.4792 77.2708V64.992C36.9086 64.1222 40.5088 62.8167 41.6033 62.317ZM46.4381 60.7434L46.7545 59.0437L46.4381 60.7434ZM31.0208 62.1458H25.8333V81.158H31.0208V62.1475V62.1458Z" fill="#007BB6"/>
</svg>
