<svg width="106" height="106" viewBox="0 0 106 106" fill="none" xmlns="http://www.w3.org/2000/svg">
<circle cx="53" cy="53" r="52" stroke="#007BB6" stroke-width="2"/>
<path d="M62.0832 67.9683C62.0757 67.9782 62.0648 67.9928 62.0509 68.0114C62.0194 68.0538 61.973 68.117 61.9166 68.1965C61.803 68.3565 61.6529 68.5765 61.5037 68.8196C61.3525 69.0661 61.2148 69.3162 61.1168 69.5389C61.0155 69.7692 60.997 69.8807 60.9951 69.8925C60.9949 69.8934 60.9949 69.8937 60.9949 69.8935L60.9948 69.896C60.9823 70.2173 60.8864 70.6204 60.8043 70.9415C60.7235 71.257 60.6203 71.6231 60.5167 71.9904C60.5023 72.0414 60.488 72.0924 60.4736 72.1433C60.236 72.9872 60.0176 73.7909 59.9375 74.3463V74.7292H67.4199V74.2621V73.8547L67.66 73.5256C68.391 72.5233 69.1657 71.7393 69.8787 71.0177L69.8841 71.0123C70.8307 70.0518 71.6925 69.1743 72.4909 67.8673C72.7003 67.5237 72.9125 67.194 73.1104 66.8863C73.1307 66.8547 73.1508 66.8234 73.1708 66.7923L73.1727 66.7894C74.0115 65.4926 74.507 64.6723 74.5958 63.9146L74.5959 63.914C74.6685 63.2969 74.7378 60.9028 74.7274 58.4339C74.7223 57.2164 74.6978 56.0148 74.6474 55.0458C74.6221 54.5602 74.591 54.1464 74.5545 53.8243C74.5362 53.6634 74.5177 53.5355 74.5001 53.4391C74.4853 53.3581 74.4747 53.3197 74.4726 53.3117C74.4697 53.3055 74.4602 53.2874 74.4372 53.2607C74.4077 53.2265 74.3622 53.1854 74.299 53.1461C74.1688 53.0651 74.0054 53.0171 73.8455 53.0208C73.6986 53.0241 73.5429 53.07 73.3865 53.1993C73.2253 53.3325 73.0063 53.6032 72.8355 54.1411C72.4386 55.3913 72.3023 57.0536 72.1711 58.7494L72.1709 58.7509L72.1671 58.8003C72.1028 59.6187 72.0376 60.4483 71.9335 61.1642C71.8332 61.854 71.6741 62.63 71.3265 63.2177M62.0832 67.9683L71.3265 63.2177M62.0832 67.9683L66.0952 63.1362C66.1023 63.1287 66.1104 63.1204 66.1192 63.1112C66.1574 63.0712 66.2109 63.0144 66.2763 62.9431C66.4067 62.8007 66.5862 62.5983 66.7879 62.3523C67.0801 61.996 67.4362 61.5275 67.7583 61.0029C67.7697 61.0216 67.7811 61.0408 67.7923 61.0605C67.9045 61.2575 67.963 61.4331 67.9803 61.5407L62.0832 67.9683ZM71.3265 63.2177C71.3266 63.2175 71.3267 63.2174 71.3268 63.2172L70.4632 62.7072M71.3265 63.2177L70.2504 62.5816M70.4632 62.7072C70.5009 62.4719 70.5232 62.2016 70.5174 61.8981C70.4444 62.1702 70.3571 62.4013 70.2504 62.5816M70.4632 62.7072C70.4631 62.7073 70.4631 62.7074 70.4631 62.7075L70.2504 62.5816M70.4632 62.7072L70.2504 62.5816M66.7264 67.5149C67.7196 68.2739 67.7196 68.2738 67.7196 68.2738L67.7198 68.2736L67.7202 68.2731L67.7218 68.271L67.7279 68.263L67.7511 68.2326L67.8391 68.1169C67.9151 68.0168 68.0244 67.8725 68.158 67.6951C68.4251 67.3404 68.7904 66.8523 69.1824 66.319C69.9506 65.2738 70.8706 63.9895 71.3261 63.2182L66.7264 67.5149ZM66.7264 67.5149L67.7196 68.2739L65.6205 66.9323L67.9394 62.5311M66.7264 67.5149L67.9394 62.5311M67.9394 62.5311C67.9457 62.5154 67.9626 62.4696 67.9791 62.3941C68.012 62.2442 68.0472 61.9601 67.9803 61.541L67.9394 62.5311ZM39.0856 67.5149C38.0936 68.2754 38.0936 68.2754 38.0935 68.2753L38.0934 68.2752L38.093 68.2746L38.0914 68.2725L38.0853 68.2646L38.062 68.2341L37.9737 68.1184C37.8975 68.0183 37.7878 67.8741 37.6538 67.6966C37.3858 67.342 37.0193 66.8539 36.6261 66.3206C35.8548 65.2749 34.9314 63.9901 34.4743 63.2191L34.4737 63.2182C34.1261 62.6308 33.9664 61.8552 33.8658 61.1645C33.7597 60.4362 33.6941 59.5912 33.6295 58.7585L33.6289 58.7507C33.4958 57.0535 33.3596 55.3923 32.9613 54.1424L34.1523 53.7629L32.9613 54.1424C32.7901 53.6052 32.5704 53.3345 32.4081 53.2008C32.2503 53.0709 32.0924 53.0241 31.9428 53.0208C31.7804 53.0171 31.6151 53.0656 31.4837 53.1471C31.42 53.1866 31.3743 53.2277 31.3449 53.2618C31.3179 53.2931 31.3098 53.3122 31.309 53.314C31.3082 53.3165 31.3036 53.3302 31.2962 53.358C31.2881 53.3883 31.2782 53.4286 31.267 53.4803C31.2444 53.5842 31.2194 53.7182 31.1929 53.8826C31.1398 54.2116 31.0853 54.6308 31.0313 55.1183C30.9236 56.0916 30.8226 57.2962 30.7405 58.5128C30.6584 59.7286 30.5958 60.945 30.5641 61.9402C30.5311 62.9755 30.5357 63.6706 30.5641 63.9134C30.6543 64.6709 31.1513 65.4918 31.9929 66.7873L31.9962 66.7923C32.0313 66.8469 32.0671 66.9025 32.1035 66.959C32.2867 67.2433 32.4842 67.5497 32.677 67.866C33.4786 69.1728 34.3434 70.0502 35.2935 71.0107L35.2994 71.0167C36.0141 71.7382 36.7906 72.5221 37.5234 73.5243L37.7644 73.8539V74.2621V74.7292H45.3333V74.341C45.1666 73.0238 44.8695 70.6211 44.8414 69.896L44.8414 69.8958C44.8414 69.896 44.8414 69.8957 44.8412 69.8948C44.8393 69.8832 44.8207 69.7715 44.7187 69.5408C44.6202 69.3179 44.4819 69.0677 44.3302 68.8211C44.1805 68.5779 44.0299 68.3579 43.9159 68.1978C43.8594 68.1183 43.8128 68.0551 43.7813 68.0127C43.7674 67.9941 43.7564 67.9796 43.7489 67.9696L39.7252 63.1379C39.7181 63.1305 39.7102 63.1223 39.7014 63.1132C39.663 63.0732 39.6093 63.0164 39.5436 62.9451C39.4126 62.8027 39.2323 62.6002 39.0298 62.3543C38.7352 61.9965 38.3759 61.5255 38.0516 60.998C38.0387 61.0188 38.0259 61.0402 38.0134 61.0622C37.9007 61.2593 37.8419 61.435 37.8245 61.5425L39.0856 67.5149ZM39.0856 67.5149L38.0936 68.2754L40.1908 66.9309L37.8646 62.5291C37.8584 62.5135 37.8416 62.468 37.8251 62.3933C37.7924 62.2441 37.7571 61.961 37.8245 61.5428L39.0856 67.5149ZM67.3975 60.5889C67.3975 60.5885 67.4016 60.5904 67.4098 60.5958C67.4017 60.592 67.3976 60.5893 67.3975 60.5889ZM38.4103 60.5897C38.4103 60.59 38.4062 60.5927 38.3982 60.5965C38.4063 60.5912 38.4103 60.5893 38.4103 60.5897ZM37.7203 60.4115C37.7203 60.4115 37.7206 60.4119 37.7211 60.4128L37.7203 60.4115ZM52.3655 37.1482L53.5006 39.6018L54.6347 37.1477C56.0502 34.0845 58.1693 32.2709 60.7953 32.2709C62.6951 32.2709 64.4205 33.2914 65.7155 35.0426C67.0143 36.799 67.8125 39.2172 67.8125 41.7538C67.8125 47.1753 64.2517 51.96 60.4312 55.503C58.5461 57.2513 56.6556 58.6431 55.2343 59.5983C54.5249 60.0751 53.9355 60.441 53.5262 60.6863C53.5116 60.695 53.4972 60.7036 53.483 60.7121C53.4718 60.7058 53.4606 60.6994 53.4491 60.6929C53.0412 60.461 52.4534 60.1134 51.7456 59.6571C50.3277 58.743 48.4414 57.4008 46.5605 55.6874C42.7581 52.2237 39.1875 47.4381 39.1875 41.7538C39.1875 39.2172 39.9856 36.799 41.2844 35.0426C42.5795 33.2914 44.3049 32.2709 46.2046 32.2709C48.8303 32.2709 50.9479 34.0841 52.3655 37.1482ZM60.4166 83.375C60.2895 83.375 60.1677 83.3246 60.0778 83.2347C59.9879 83.1448 59.9375 83.023 59.9375 82.8959V79.4375C59.9375 79.3105 59.9879 79.1886 60.0778 79.0987C60.1677 79.0089 60.2895 78.9584 60.4166 78.9584H67.3333C67.4604 78.9584 67.5823 79.0089 67.6721 79.0987C67.762 79.1886 67.8125 79.3105 67.8125 79.4375V82.8959C67.8125 83.023 67.762 83.1448 67.6721 83.2347C67.5823 83.3246 67.4604 83.375 67.3333 83.375H60.4166ZM45.3333 82.8959C45.3333 83.023 45.2828 83.1448 45.193 83.2347C45.1031 83.3246 44.9812 83.375 44.8541 83.375H37.9375C37.8104 83.375 37.6885 83.3246 37.5986 83.2347C37.5088 83.1448 37.4583 83.023 37.4583 82.8959V79.4375C37.4583 79.3105 37.5088 79.1886 37.5986 79.0987C37.6885 79.0089 37.8104 78.9584 37.9375 78.9584H44.8541C44.9812 78.9584 45.1031 79.0089 45.193 79.0987C45.2828 79.1886 45.3333 79.3105 45.3333 79.4375V82.8959Z" stroke="#007BB6" stroke-width="2.5"/>
</svg>
