<svg width="95" height="95" viewBox="0 0 95 95" fill="none" xmlns="http://www.w3.org/2000/svg">
<path d="M73.636 34.3319C73.6359 34.6687 73.7504 34.9956 73.9606 35.2588C74.1708 35.5219 74.4643 35.7058 74.7928 35.78C80.7709 37.1311 81.5261 37.8863 82.8757 43.8615C82.9501 44.19 83.134 44.4834 83.3971 44.6936C83.6603 44.9038 83.987 45.0183 84.3238 45.0183C84.6606 45.0183 84.9874 44.9038 85.2506 44.6936C85.5137 44.4834 85.6976 44.19 85.772 43.8615C87.1216 37.8849 87.8768 37.1296 93.8534 35.78C94.1819 35.7057 94.4753 35.5218 94.6855 35.2586C94.8958 34.9955 95.0103 34.6687 95.0103 34.3319C95.0103 33.9951 94.8958 33.6683 94.6855 33.4052C94.4753 33.142 94.1819 32.9582 93.8534 32.8838C87.8782 31.5342 87.123 30.7789 85.772 24.8009C85.6976 24.4724 85.5137 24.179 85.2506 23.9688C84.9874 23.7585 84.6606 23.644 84.3238 23.644C83.987 23.644 83.6603 23.7585 83.3971 23.9688C83.134 24.179 82.9501 24.4724 82.8757 24.8009C81.5247 30.7775 80.7695 31.5327 74.7928 32.8838C74.4643 32.9581 74.1708 33.1419 73.9606 33.4051C73.7503 33.6682 73.6359 33.9951 73.636 34.3319ZM84.3238 30.1905C84.7078 31.1191 85.2711 31.9628 85.9815 32.6735C86.6918 33.3841 87.5354 33.9477 88.4638 34.3319C87.5356 34.7161 86.6922 35.2795 85.9818 35.9899C85.2714 36.7003 84.708 37.5437 84.3238 38.472C83.9396 37.5435 83.376 36.7 82.6654 35.9896C81.9547 35.2792 81.111 34.7159 80.1824 34.332C81.1112 33.948 81.9551 33.3845 82.6657 32.6738C83.3764 31.9631 83.9398 31.1192 84.3238 30.1905V30.1905ZM50.5021 20.7392C58.1023 22.4555 59.1692 23.5224 60.8855 31.1226C60.9599 31.451 61.1438 31.7445 61.4069 31.9547C61.67 32.1649 61.9968 32.2794 62.3336 32.2794C62.6704 32.2794 62.9972 32.1649 63.2604 31.9547C63.5235 31.7445 63.7074 31.451 63.7818 31.1226C65.4981 23.5224 66.565 22.4555 74.1652 20.7392C74.4936 20.6648 74.7871 20.4809 74.9973 20.2178C75.2075 19.9546 75.322 19.6278 75.322 19.291C75.322 18.9542 75.2075 18.6274 74.9973 18.3643C74.7871 18.1011 74.4936 17.9173 74.1652 17.8429C66.565 16.1266 65.4981 15.0597 63.7818 7.45951C63.7074 7.13103 63.5235 6.8376 63.2604 6.62739C62.9972 6.41718 62.6704 6.30268 62.3336 6.30268C61.9968 6.30268 61.67 6.41718 61.4069 6.62739C61.1438 6.8376 60.9599 7.13103 60.8855 7.45951C59.1692 15.0597 58.1023 16.1266 50.5021 17.8429C50.1736 17.9173 49.8802 18.1011 49.67 18.3643C49.4598 18.6274 49.3453 18.9542 49.3453 19.291C49.3453 19.6278 49.4598 19.9546 49.67 20.2178C49.8802 20.4809 50.1736 20.6648 50.5021 20.7392ZM62.3336 13.1839C62.7987 14.6109 63.5942 15.9078 64.6555 16.9691C65.7168 18.0303 67.0137 18.8259 68.4407 19.2909C67.0137 19.7559 65.7168 20.5515 64.6555 21.6128C63.5942 22.674 62.7987 23.971 62.3336 25.398C61.8686 23.971 61.073 22.674 60.0117 21.6128C58.9505 20.5515 57.6535 19.7559 56.2265 19.2909C57.6535 18.8259 58.9504 18.0303 60.0117 16.9691C61.073 15.9078 61.8686 14.6109 62.3336 13.1839ZM46.0055 26.7129H35.6149V20.502C36.4807 20.197 37.2308 19.6315 37.7624 18.8831C38.2939 18.1347 38.5808 17.2402 38.5836 16.3223V4.44727C38.5823 3.26662 38.1127 2.1347 37.2779 1.29985C36.4431 0.46501 35.3111 -0.00457065 34.1305 -0.00585938H19.2867C18.1061 -0.00457065 16.9742 0.46501 16.1393 1.29985C15.3045 2.1347 14.8349 3.26662 14.8336 4.44727V16.3223C14.8364 17.2402 15.1233 18.1347 15.6549 18.8831C16.1864 19.6315 16.9366 20.197 17.8024 20.502V26.7128H7.41174C5.44405 26.7151 3.55761 27.4978 2.16624 28.8891C0.774865 30.2805 -0.0078219 32.167 -0.0101318 34.1346V40.0721C-0.00784125 41.7822 0.583969 43.4392 1.66554 44.7638C2.74711 46.0884 4.25229 46.9996 5.92737 47.3438V74.3628C4.2522 74.7069 2.74691 75.6181 1.66532 76.9427C0.583719 78.2674 -0.00802121 79.9245 -0.0101318 81.6346V87.5721C-0.008065 89.5399 0.774544 91.4265 2.16597 92.8179C3.55739 94.2093 5.44397 94.992 7.41174 94.994H46.0055C47.9733 94.992 49.8598 94.2093 51.2513 92.8179C52.6427 91.4265 53.4253 89.5399 53.4274 87.5721V81.6346C53.4253 79.9245 52.8335 78.2674 51.7519 76.9427C50.6703 75.6181 49.165 74.7069 47.4899 74.3628V47.3439C49.1649 46.9998 50.6701 46.0886 51.7517 44.764C52.8333 43.4394 53.4251 41.7824 53.4274 40.0723V34.1348C53.4251 32.1671 52.6424 30.2806 51.2511 28.8892C49.8597 27.4978 47.9732 26.7151 46.0055 26.7128V26.7129ZM17.8024 4.4473C17.8026 4.0537 17.9591 3.6763 18.2374 3.39798C18.5157 3.11966 18.8931 2.96319 19.2867 2.96292H34.1305C34.5241 2.96319 34.9015 3.11966 35.1798 3.39798C35.4581 3.6763 35.6146 4.0537 35.6149 4.4473V16.3223C35.6146 16.7159 35.4581 17.0933 35.1798 17.3716C34.9015 17.6499 34.5241 17.8064 34.1305 17.8067H19.2867C18.8931 17.8064 18.5157 17.6499 18.2374 17.3716C17.9591 17.0933 17.8026 16.7159 17.8024 16.3223V4.4473ZM32.6461 20.7754V26.7129H20.7711V20.7754H32.6461ZM50.4586 81.6348V87.5723C50.4573 88.7529 49.9877 89.8849 49.1529 90.7197C48.3181 91.5546 47.1861 92.0241 46.0055 92.0254H7.41174C6.2311 92.0241 5.09917 91.5546 4.26433 90.7197C3.42949 89.8849 2.95991 88.7529 2.95862 87.5723V81.6348C2.95991 80.4542 3.42949 79.3222 4.26433 78.4874C5.09917 77.6525 6.2311 77.183 7.41174 77.1817H46.0055C47.1861 77.183 48.318 77.6525 49.1529 78.4873C49.9877 79.3221 50.4573 80.454 50.4586 81.6346V81.6348ZM8.89612 74.2129V47.4942H44.5211V74.2129H8.89612ZM50.4586 40.0723C50.4573 41.2529 49.9877 42.3849 49.1529 43.2197C48.3181 44.0546 47.1861 44.5241 46.0055 44.5254H7.41174C6.2311 44.5241 5.09917 44.0546 4.26433 43.2197C3.42949 42.3849 2.95991 41.2529 2.95862 40.0723V34.1348C2.95991 32.9541 3.42949 31.8222 4.26433 30.9874C5.09917 30.1525 6.2311 29.683 7.41174 29.6817H46.0055C47.1861 29.683 48.3181 30.1525 49.1529 30.9874C49.9877 31.8222 50.4573 32.9541 50.4586 34.1348V40.0723ZM37.0992 56.4004H16.318C15.9243 56.4004 15.5468 56.5568 15.2684 56.8352C14.99 57.1136 14.8336 57.4911 14.8336 57.8848C14.8336 58.2785 14.99 58.656 15.2684 58.9344C15.5468 59.2128 15.9243 59.3692 16.318 59.3692H37.0992C37.4929 59.3692 37.8705 59.2128 38.1489 58.9344C38.4272 58.656 38.5836 58.2785 38.5836 57.8848C38.5836 57.4911 38.4272 57.1136 38.1489 56.8352C37.8705 56.5568 37.4929 56.4004 37.0992 56.4004ZM34.1305 62.3379H19.2867C18.8931 62.3379 18.5155 62.4943 18.2371 62.7727C17.9588 63.0511 17.8024 63.4286 17.8024 63.8223C17.8024 64.216 17.9588 64.5935 18.2371 64.8719C18.5155 65.1503 18.8931 65.3067 19.2867 65.3067H34.1305C34.5242 65.3067 34.9017 65.1503 35.1801 64.8719C35.4585 64.5935 35.6149 64.216 35.6149 63.8223C35.6149 63.4286 35.4585 63.0511 35.1801 62.7727C34.9017 62.4943 34.5242 62.3379 34.1305 62.3379ZM82.0177 48.2218L77.4848 49.4511C76.6757 49.6733 75.8195 49.6552 75.0205 49.3989L70.5457 47.9769C68.756 47.4081 66.8446 47.3416 65.0198 47.7846C63.195 48.2275 61.5268 49.163 60.1971 50.4889C58.8675 51.8149 57.9273 53.4804 57.4792 55.304C57.0311 57.1275 57.0922 59.0391 57.6559 60.8303L60.5479 70.0207C60.8394 70.9667 60.8068 71.9829 60.4551 72.9083C59.4272 75.8184 58.9953 78.9056 59.1851 81.9862C59.3748 85.0667 60.1824 88.0775 61.5597 90.8395L62.4961 92.7095C62.7766 93.2757 63.2103 93.7519 63.7479 94.0839C64.2855 94.416 64.9054 94.5907 65.5373 94.5881H65.5605C66.1966 94.5866 66.8194 94.4057 67.3573 94.0662C67.8953 93.7268 68.3266 93.2424 68.6017 92.6689L73.6999 82.142C73.8393 81.7668 74.1008 81.4494 74.4423 81.2407C74.7837 81.0319 75.1855 80.944 75.5829 80.991C75.9752 80.9931 76.3581 81.1109 76.6838 81.3295C77.0094 81.5482 77.2633 81.858 77.4138 82.2203L82.0597 92.9559V92.9589C82.3106 93.5428 82.721 94.0442 83.2437 94.4057C83.7665 94.7672 84.3805 94.9741 85.0154 95.0028C85.0734 95.0058 85.1299 95.0057 85.1865 95.0057C85.7929 95.0077 86.3886 94.8465 86.9113 94.5389C87.4339 94.2313 87.8641 93.7887 88.1567 93.2575L89.1076 91.547C90.6205 88.809 91.5678 85.795 91.8932 82.6838C92.2187 79.5726 91.9157 76.4277 91.0022 73.4359C90.7253 72.53 90.7486 71.5588 91.0689 70.6672L94.3493 61.6102C94.9885 59.8446 95.1307 57.9375 94.7604 56.0967C94.3901 54.2559 93.5216 52.552 92.2495 51.1709C90.9774 49.7898 89.3505 48.7845 87.5463 48.2644C85.7421 47.7444 83.8297 47.7297 82.0177 48.2218ZM91.5574 60.6013L88.2769 69.6583C87.7386 71.1566 87.699 72.7888 88.1638 74.3115C88.9609 76.92 89.2254 79.6622 88.9418 82.375C88.6582 85.0878 87.8321 87.716 86.5128 90.1032L85.5619 91.8138C85.5196 91.8819 85.4608 91.9382 85.3907 91.9772C85.3207 92.0163 85.2419 92.0369 85.1618 92.037C85.0804 92.0363 85.0011 92.0114 84.9339 91.9654C84.8668 91.9195 84.8148 91.8546 84.7847 91.779L80.1388 81.0434C79.7632 80.1585 79.1384 79.4018 78.3406 78.8655C77.5428 78.3292 76.6063 78.0363 75.6451 78.0224C74.6817 77.9821 73.7281 78.2294 72.9056 78.7327C72.0832 79.2361 71.4291 79.9728 71.0267 80.8491L65.93 91.376C65.8967 91.4505 65.842 91.5134 65.7728 91.5568C65.7036 91.6001 65.6231 91.6219 65.5415 91.6194C65.46 91.6244 65.3789 91.6043 65.3092 91.5618C65.2395 91.5193 65.1845 91.4565 65.1516 91.3817L64.2137 89.5118C63.0106 87.09 62.3085 84.4503 62.1493 81.7508C61.9901 79.0514 62.3773 76.3475 63.2874 73.8011C63.8291 72.2955 63.8617 70.6536 63.3802 69.1277L60.4883 59.9373C60.0878 58.6646 60.0445 57.3064 60.3629 56.0108C60.6813 54.7151 61.3493 53.5317 62.2941 52.5897C63.2389 51.6476 64.4242 50.983 65.7207 50.6683C67.0173 50.3535 68.3754 50.4008 69.6469 50.8049L74.1189 52.2284L74.1655 52.2362C73.5882 53.0259 73.1647 53.9173 72.9172 54.8637C72.8242 55.2465 72.8869 55.6504 73.0915 55.9869C73.2962 56.3234 73.6261 56.5649 74.0087 56.6583C74.1243 56.6846 74.2424 56.6982 74.361 56.6989C74.6933 56.6984 75.0159 56.5864 75.2772 56.3809C75.5384 56.1754 75.7231 55.8882 75.8019 55.5653C75.9854 54.8265 76.3366 54.1398 76.8283 53.5586C77.3201 52.9774 77.939 52.5173 78.6373 52.2139L82.7961 51.0861C84.0837 50.7369 85.4425 50.7479 86.7243 51.1177C88.0062 51.4876 89.1619 52.2022 90.0656 53.1836C90.9693 54.1651 91.5863 55.3757 91.8493 56.6837C92.1124 57.9916 92.0114 59.3467 91.5574 60.6012V60.6013Z" fill="#007BB6"/>
</svg>
