<svg width="95" height="92" viewBox="0 0 95 92" fill="none" xmlns="http://www.w3.org/2000/svg">
<path d="M78.6719 56.0781H65.0156V55.7813C65.0156 55.4844 64.7188 54.8906 64.7188 54.5938C64.7188 54 64.7188 53.1094 65.0156 52.5156L65.3125 51.9219C65.9062 50.1406 65.6094 48.3594 64.7188 46.5781C63.5312 45.0938 62.0469 44.2031 59.9688 44.2031H56.7031C57 43.0156 56.7031 41.8281 56.1094 40.9375L54.9219 39.1563C54.0312 37.6719 52.5469 36.7813 50.7656 36.7813H45.7188C43.0469 36.7813 40.6719 39.1563 40.6719 41.8281V44.5H35.0312C32.0625 44.5 29.3906 47.1719 29.3906 50.1406C29.3906 50.7344 29.3906 51.3281 29.6875 51.9219C29.9844 52.8125 29.9844 53.7031 29.6875 54.5938C29.6875 54.8906 29.6875 55.1875 29.3906 55.4844L29.0938 56.375H16.3281C7.42188 56.375 0 63.7969 0 72.7031V84.5781C0 88.7344 3.26562 92 7.42188 92H87.5781C91.7344 92 95 88.7344 95 84.5781V72.7031C95 63.5 87.5781 56.0781 78.6719 56.0781ZM43.3438 41.8281C43.3438 40.6406 44.2344 39.75 45.4219 39.75H50.4688C51.0625 39.75 51.9531 40.0469 52.25 40.6406L53.4375 42.4219C54.0312 43.0156 53.7344 43.9063 53.4375 44.7969L51.6562 47.1719C51.3594 47.4688 51.3594 47.7656 51.0625 47.7656L47.5 49.8438C46.9062 50.1406 46.0156 50.1406 45.125 49.5469L43.9375 48.6563C43.3438 48.3594 43.0469 47.7656 43.0469 47.1719V41.8281H43.3438ZM32.0625 50.7344C32.0625 50.4375 32.0625 50.1406 32.0625 49.8438C32.0625 48.3594 33.25 47.1719 34.7344 47.1719H40.375C40.375 48.6563 40.9688 49.8438 42.1562 51.0313L43.3438 51.9219C44.2344 52.8125 45.4219 53.1094 46.6094 53.1094C47.5 53.1094 48.3906 52.8125 48.9844 52.5156L52.5469 50.4375C53.1406 50.1406 53.7344 49.5469 54.3281 48.9531L55.5156 47.1719H60.2656C61.1562 47.1719 62.0469 47.4688 62.3438 48.3594C62.9375 48.9531 62.9375 50.1406 62.6406 50.7344L62.3438 51.625C62.0469 52.8125 61.75 54 61.75 54.8906C61.75 55.4844 61.75 56.375 62.0469 56.9688C62.0469 57.2656 62.3438 57.8594 62.3438 58.1563C62.9375 60.2344 63.2344 62.0156 63.2344 64.0938C63.2344 68.25 62.0469 72.4063 60.2656 75.9688L59.0781 78.0469C58.7812 78.3438 58.4844 78.3438 58.4844 78.3438C58.1875 78.3438 57.8906 78.3438 57.8906 77.75L52.25 64.9844C51.3594 62.9063 49.2812 61.7188 47.2031 61.4219C44.8281 61.4219 43.0469 62.6094 41.8594 64.6875L35.625 77.1563C35.3281 77.4531 35.0312 77.4531 35.0312 77.4531C35.0312 77.4531 34.4375 77.4531 34.4375 77.1563C32.6562 73.5938 31.4688 67.9531 31.4688 62.6094C31.4688 61.125 31.4688 59.3438 31.7656 57.8594L32.0625 56.0781C32.0625 55.7813 32.3594 55.1875 32.3594 54.8906C32.6562 53.7031 32.6562 52.2188 32.0625 50.7344ZM92.0312 84.2813C92.0312 86.6563 89.9531 88.7344 87.5781 88.7344H7.42188C5.04688 88.7344 2.96875 86.6563 2.96875 84.2813V72.4063C2.96875 64.9844 8.90625 59.0469 16.3281 59.0469H28.5C28.5 60.2344 28.2031 61.4219 28.2031 62.6094C28.2031 68.25 29.3906 74.4844 31.4688 78.3438C32.0625 79.5313 33.5469 80.4219 34.7344 80.4219C36.2188 80.4219 37.4062 79.5313 38 78.3438L44.2344 65.875C44.8281 64.9844 45.4219 64.3906 46.6094 64.3906C47.7969 64.3906 48.6875 64.9844 48.9844 65.875L54.625 78.6406C55.2188 79.8281 56.4062 80.7188 57.8906 81.0156C57.8906 81.0156 57.8906 81.0156 58.1875 81.0156C59.6719 81.0156 60.8594 80.4219 61.4531 79.2344L62.6406 77.1563C65.0156 73 66.2031 68.5469 66.2031 63.7969C66.2031 62.3125 65.9062 60.5313 65.6094 59.0469H78.6719C86.0938 59.0469 92.0312 64.9844 92.0312 72.4063V84.2813ZM27.0156 19.2656C27.3125 20.1563 27.6094 20.75 28.2031 21.3438C28.7969 22.2344 29.3906 22.8281 30.2812 23.125C33.8438 25.5 39.7812 28.1719 47.5 28.1719H47.7969C55.5156 28.1719 61.4531 25.5 65.0156 23.125C66.5 22.2344 67.6875 21.0469 67.9844 19.2656L68.875 16.5938C70.3594 12.4375 69.4688 7.68751 66.5 4.42188C63.5312 1.15626 58.7812 -0.0312417 54.625 1.15626L49.5781 2.64063H49.2812C48.3906 2.93751 47.2031 2.93751 46.3125 2.64063L40.9688 0.859383C36.5156 -0.624992 32.0625 0.562508 28.7969 3.82813C25.5312 7.09376 24.3438 11.5469 25.8281 15.7031L27.0156 19.2656ZM47.7969 25.2031C47.5 25.2031 47.5 25.2031 47.7969 25.2031C40.6719 25.2031 35.3281 22.8281 31.7656 20.75C34.4375 19.5625 39.7812 17.7813 47.5 17.7813C54.9219 17.7813 60.2656 19.2656 62.9375 20.75C59.6719 22.8281 54.3281 25.2031 47.7969 25.2031ZM30.875 5.60938C32.6562 3.82813 34.7344 2.93751 37.1094 2.93751C38 2.93751 38.8906 2.93751 39.7812 3.23438L45.125 5.01563H45.4219C44.5312 5.90626 43.9375 7.09376 43.6406 8.28126C43.9375 9.46876 44.2344 10.3594 45.125 10.3594H45.4219C46.0156 10.3594 46.6094 9.76563 46.9062 9.17188C47.5 7.39063 48.6875 5.90626 50.4688 5.01563L55.5156 3.53126C58.7813 2.64063 62.0469 3.53126 64.4219 6.20313C66.7969 8.57813 67.3906 12.1406 66.2031 15.4063L65.3125 18.375C62.3438 16.8906 56.4062 14.8125 47.7969 14.8125H47.5C39.1875 14.8125 33.25 16.5938 30.2812 18.375L28.7969 14.8125C27.6094 11.5469 28.5 8.28126 30.875 5.60938Z" fill="#007BB6"/>
</svg>
