<svg width="81" height="95" viewBox="0 0 81 95" fill="none" xmlns="http://www.w3.org/2000/svg">
<path d="M43.4296 12.4596L35.7438 14.7108C35.677 14.7228 35.6111 14.7393 35.5466 14.7601L35.2422 14.8616C33.5549 15.3506 31.7635 15.3511 30.0759 14.863L21.88 12.4596C18.6174 11.499 15.1434 11.5261 11.8961 12.5376C11.2182 10.8772 10.7014 9.1555 10.3529 7.39622C10.2789 7.06784 10.0953 6.77441 9.8324 6.56418C9.56948 6.35395 9.24287 6.23943 8.90624 6.23943C8.56961 6.23943 8.24299 6.35395 7.98008 6.56418C7.71716 6.77441 7.5336 7.06784 7.45955 7.39622C5.74326 14.9964 4.67344 16.0633 -2.92514 17.7796C-3.25353 17.8541 -3.54686 18.038 -3.75704 18.3012C-3.96721 18.5643 -4.08176 18.891 -4.08191 19.2277C-4.08176 19.5645 -3.96721 19.8912 -3.75704 20.1543C-3.54686 20.4174 -3.25353 20.6013 -2.92514 20.6759C-1.54783 20.9702 -0.188149 21.3417 1.14748 21.7886C0.179537 23.796 -0.381738 25.975 -0.50402 28.2002C-0.626302 30.4255 -0.307175 32.6529 0.434985 34.7542L6.04476 51.3506C6.6912 53.3137 6.66979 55.4355 5.98388 57.3852C4.2803 62.563 3.63445 68.0303 4.08466 73.4625C4.53488 78.8948 6.07198 84.1812 8.60472 89.0079L10.3847 92.3593C10.7951 93.1991 11.4437 93.8996 12.2494 94.3734C13.0552 94.8472 13.9827 95.0733 14.9161 95.0236C15.8458 95.0023 16.7508 94.7202 17.5279 94.2094C18.305 93.6985 18.923 92.9796 19.3112 92.1346L28.1538 72.7856C28.55 71.9259 29.1841 71.1977 29.981 70.687C30.778 70.1763 31.7045 69.9046 32.651 69.9038C33.5976 69.903 34.5245 70.1733 35.3223 70.6827C36.1201 71.1921 36.7553 71.9193 37.1529 72.7783L46.0069 92.1448C46.3955 92.9875 47.013 93.7042 47.7891 94.2132C48.5651 94.7222 49.4685 95.003 50.3963 95.0237L50.5239 95.0251C51.4315 95.0257 52.3219 94.7776 53.0984 94.3076C53.8748 93.8376 54.5075 93.1637 54.9278 92.3593L56.5919 89.2108C59.7003 83.3134 61.3281 76.7486 61.335 70.0821C61.3256 65.6995 60.62 61.3463 59.2447 57.1851C58.6288 55.2877 58.637 53.243 59.2679 51.3506L64.8778 34.7571C65.9022 31.7332 66.0761 28.4858 65.3803 25.3698C64.6846 22.2537 63.146 19.3887 60.9326 17.0877C58.7192 14.7866 55.9161 13.138 52.8294 12.3218C49.7427 11.5057 46.491 11.5533 43.4296 12.4596ZM8.90625 13.1206C9.13505 13.6899 9.40239 14.2428 9.70642 14.7757C9.71785 14.812 9.71236 14.8491 9.72673 14.8848C9.76195 14.9487 9.80224 15.0096 9.84723 15.0671C11.0061 17.0354 12.842 18.5144 15.0119 19.2277C13.5851 19.6928 12.2883 20.4884 11.2273 21.5497C10.1663 22.611 9.371 23.9079 8.90625 25.3348C8.51197 24.1474 7.88378 23.051 7.05878 22.1103C6.23377 21.1697 5.22867 20.4039 4.10282 19.8581C4.06784 19.8321 4.04718 19.7945 4.00951 19.7715C3.89916 19.7138 3.7817 19.6708 3.66015 19.6438C3.36752 19.5085 3.12307 19.3532 2.80054 19.2278C4.22737 18.7627 5.52413 17.9671 6.58517 16.9058C7.64621 15.8445 8.44151 14.5476 8.90625 13.1206ZM62.0654 33.8033L56.4555 50.3996C55.6208 52.8986 55.6086 55.5992 56.4207 58.1056C57.6998 61.9694 58.3564 66.012 58.3661 70.0821C58.36 76.2653 56.8496 82.3542 53.9651 87.8235L52.301 90.9706C52.1341 91.3093 51.8723 91.5921 51.5475 91.7847C51.2227 91.9772 50.8489 92.0711 50.4716 92.0548C50.0976 92.0502 49.7326 91.939 49.4194 91.7344C49.1062 91.5298 48.8577 91.2402 48.7031 90.8995L39.8491 71.536C39.2141 70.1616 38.1987 68.9979 36.9231 68.1825C35.6475 67.3671 34.165 66.9342 32.651 66.935C31.1371 66.9357 29.655 67.3701 28.3802 68.1868C27.1054 69.0035 26.0912 70.1682 25.4576 71.5432L16.6151 90.8894C16.4576 91.2308 16.2073 91.521 15.8928 91.7271C15.5783 91.9332 15.2122 92.0468 14.8363 92.0549C14.4604 92.0631 14.0897 91.9655 13.7666 91.7733C13.4434 91.581 13.1808 91.3019 13.0086 90.9677L11.2285 87.6177C8.87329 83.115 7.4497 78.1839 7.04274 73.1187C6.63578 68.0536 7.25379 62.9584 8.85988 58.1375C9.70262 55.6268 9.70158 52.9096 8.85691 50.3996L3.24701 33.7989C2.01033 30.3116 2.20613 26.4763 3.79151 23.1331C5.67489 24.5502 6.48212 26.7309 7.45949 31.0592C7.53354 31.3876 7.71711 31.681 7.98002 31.8912C8.24293 32.1015 8.56955 32.216 8.90618 32.216C9.24281 32.216 9.56942 32.1015 9.83234 31.8912C10.0953 31.681 10.2788 31.3876 10.3529 31.0592C12.0692 23.459 13.139 22.3922 20.7376 20.6758C21.066 20.6014 21.3595 20.4176 21.5697 20.1544C21.7799 19.8913 21.8944 19.5645 21.8944 19.2277C21.8944 18.8909 21.7799 18.5641 21.5697 18.3009C21.3595 18.0378 21.066 17.8539 20.7376 17.7795C18.2134 17.4467 15.8039 16.521 13.706 15.0784C16.1324 14.5217 18.6614 14.6013 21.048 15.3096L29.2468 17.7144C29.8342 17.8808 30.4332 18.0034 31.0387 18.0812C29.5324 19.7509 28.481 21.7801 27.9857 23.9737C27.9435 24.1641 27.9394 24.361 27.9734 24.5531C28.0074 24.7452 28.079 24.9287 28.184 25.0931C28.289 25.2575 28.4254 25.3996 28.5854 25.5112C28.7454 25.6228 28.9258 25.7018 29.1164 25.7436C29.2211 25.7665 29.328 25.7781 29.4353 25.7784C29.7732 25.7781 30.101 25.6626 30.3645 25.451C30.628 25.2394 30.8116 24.9443 30.8849 24.6144C31.2329 23.0723 31.9329 21.6315 32.9302 20.4049C33.9275 19.1783 35.1951 18.199 36.6337 17.5437L44.2674 15.3081C46.8072 14.5551 49.5051 14.5147 52.0664 15.1911C54.6276 15.8675 56.9537 17.2348 58.7905 19.1436C60.6274 21.0524 61.9043 23.4293 62.4819 26.0147C63.0594 28.6 62.9154 31.2944 62.0654 33.8034V33.8033ZM79.0198 9.07051C73.0446 7.72094 72.2879 6.96566 70.9369 0.987612C70.8294 0.69016 70.6328 0.433073 70.3739 0.251367C70.1151 0.0696604 69.8065 -0.027832 69.4902 -0.027832C69.1739 -0.027832 68.8653 0.0696604 68.6065 0.251367C68.3476 0.433073 68.151 0.69016 68.0435 0.987612C66.6925 6.96424 65.9357 7.71949 59.9577 9.07051C59.6293 9.14491 59.3358 9.32877 59.1256 9.59191C58.9154 9.85506 58.8009 10.1819 58.8009 10.5187C58.8009 10.8554 58.9154 11.1822 59.1256 11.4454C59.3358 11.7085 59.6293 11.8924 59.9577 11.9668C65.9359 13.3179 66.6925 14.073 68.0435 20.0481C68.1176 20.3764 68.3011 20.6699 68.564 20.8801C68.827 21.0903 69.1536 21.2049 69.4902 21.2049C69.8268 21.2049 70.1535 21.0903 70.4164 20.8801C70.6793 20.6699 70.8628 20.3764 70.9369 20.0481C72.2879 14.0714 73.0447 13.3162 79.0198 11.9666C79.3483 11.8922 79.6417 11.7084 79.8519 11.4452C80.0621 11.1821 80.1766 10.8553 80.1766 10.5185C80.1766 10.1817 80.0621 9.85488 79.8519 9.59173C79.6417 9.32859 79.3483 9.14473 79.0198 9.07033V9.07051ZM69.4901 14.6586C69.1058 13.73 68.542 12.8863 67.8311 12.1759C67.1202 11.4655 66.2761 10.9023 65.3472 10.5186C66.2763 10.1349 67.1205 9.57152 67.8314 8.86085C68.5423 8.15018 69.106 7.30618 69.4901 6.37723C69.8736 7.30606 70.4367 8.15003 71.1472 8.86072C71.8576 9.5714 72.7014 10.1348 73.6301 10.5186C72.7015 10.9022 71.8577 11.4653 71.1473 12.1758C70.4369 12.8863 69.8737 13.73 69.4902 14.6586H69.4901Z" fill="#007BB6"/>
</svg>
