<svg width="95" height="79" viewBox="0 0 95 79" fill="none" xmlns="http://www.w3.org/2000/svg">
<path d="M71.257 31.1192C65.9793 31.1198 60.854 32.8891 56.6997 36.1443L61.4723 22.0926C62.4324 19.2408 62.5915 16.1802 61.9323 13.2442C61.273 10.3082 59.8207 7.60946 57.7336 5.44188C55.6464 3.2743 53.0045 1.72104 50.0955 0.951305C47.1865 0.18157 44.1221 0.224877 41.2361 1.07651L33.994 3.22776L33.5881 3.33068C32.0173 3.7861 30.3497 3.78713 28.7783 3.33365L21.1158 1.0752C18.2296 0.197014 15.1556 0.141773 12.2397 0.915697C9.32377 1.68962 6.68173 3.26199 4.61088 5.45586C2.50205 7.60744 1.03595 10.3052 0.377745 13.2451C-0.280463 16.185 -0.104625 19.2503 0.88545 22.0957L6.16775 37.6454C6.76 39.4668 6.7396 41.432 6.10968 43.2407C4.50784 48.1016 3.90102 53.2353 4.32537 58.3357C4.74973 63.4361 6.19657 68.3989 8.57968 72.9282L10.2351 76.0681C10.6495 76.8512 11.2729 77.5042 12.0359 77.9546C12.7989 78.4049 13.6719 78.635 14.5578 78.6193C15.4468 78.6016 16.3127 78.3324 17.0551 77.8429C17.7976 77.3534 18.3862 76.6637 18.7529 75.8535L27.0648 57.7134C27.4281 56.9282 28.0085 56.2634 28.7374 55.7975C29.4664 55.3315 30.3135 55.0839 31.1787 55.0839C32.0439 55.0839 32.891 55.3315 33.6199 55.7975C34.3489 56.2634 34.9293 56.9282 35.2926 57.7134L43.6016 75.8535C43.9693 76.6636 44.5586 77.3531 45.3014 77.8425C46.0443 78.3318 46.9104 78.6011 47.7998 78.6192H47.9186C48.7837 78.6238 49.6332 78.3894 50.3735 77.9418C51.1138 77.4941 51.716 76.8507 52.1137 76.0824L53.6938 73.1223C53.9302 72.6619 54.1852 72.1484 54.4387 71.6193C57.1958 74.3876 60.5934 76.4328 64.3302 77.5735C68.0671 78.7142 72.0277 78.9151 75.8608 78.1585C79.6939 77.4019 83.2811 75.7111 86.3042 73.236C89.3273 70.761 91.693 67.5782 93.1914 63.9699C94.6898 60.3616 95.2746 56.4392 94.8941 52.5508C94.5135 48.6623 93.1793 44.9278 91.0097 41.6784C88.8401 38.4291 85.9023 35.7654 82.4566 33.9234C79.011 32.0815 75.1641 31.1182 71.257 31.1192ZM51.0643 71.7454L49.4871 74.6996C49.3331 74.9934 49.0998 75.2382 48.8138 75.4063C48.5278 75.5743 48.2004 75.6589 47.8688 75.6505C47.5371 75.642 47.2145 75.5409 46.9374 75.3585C46.6603 75.1761 46.4398 74.9197 46.3009 74.6185L37.989 56.4782C37.3899 55.1759 36.4299 54.0727 35.2229 53.2994C34.0159 52.526 32.6124 52.115 31.1789 52.115C29.7454 52.115 28.3419 52.526 27.1349 53.2994C25.9279 54.0727 24.9679 55.1759 24.3687 56.4782L16.0539 74.6184C15.919 74.9228 15.6994 75.182 15.4213 75.365C15.1432 75.548 14.8183 75.6471 14.4854 75.6506C14.1529 75.6588 13.8247 75.5731 13.5386 75.4034C13.2525 75.2336 13.02 74.9867 12.8677 74.6909L11.2036 71.5396C8.99839 67.3325 7.66553 62.7234 7.28492 57.9886C6.90431 53.2539 7.48379 48.4911 8.98862 43.9857C9.77096 41.6189 9.76888 39.0628 8.98269 36.6972L3.69766 21.1447C2.88752 18.8135 2.74404 16.3025 3.28338 13.8942C3.82271 11.4858 5.02345 9.27584 6.75048 7.51282C8.44845 5.71573 10.6139 4.4278 13.0036 3.79375C15.3933 3.1597 17.9125 3.20467 20.278 3.9236L27.9463 6.1835C28.4554 6.32947 28.9739 6.44074 29.4981 6.51654C28.1304 8.0629 27.1722 9.92753 26.7113 11.9398C26.6265 12.3245 26.6981 12.727 26.9101 13.0589C27.1221 13.3909 27.4573 13.625 27.8419 13.7098C27.9467 13.7327 28.0536 13.7443 28.1608 13.7446C28.4988 13.7442 28.8265 13.6287 29.09 13.4171C29.3535 13.2055 29.537 12.9105 29.6103 12.5806C29.9321 11.1529 30.5795 9.81886 31.5019 8.68259C32.4243 7.54633 33.5967 6.63855 34.9277 6.03008L42.0767 3.92523C44.4413 3.22705 46.9521 3.19114 49.3357 3.82141C51.7192 4.45169 53.8841 5.72397 55.5945 7.49967C57.3049 9.27538 58.4952 11.4864 59.0357 13.8919C59.5763 16.2974 59.4464 18.8051 58.6601 21.1418L53.372 36.706C53.0395 37.7431 52.8577 38.8226 52.8321 39.9114C49.4835 44.0122 47.6096 49.119 47.5111 54.4123C47.4126 59.7057 49.0951 64.8786 52.2888 69.1012C51.9043 69.9994 51.5048 70.8889 51.0643 71.7454ZM71.257 75.6504C67.3015 75.6542 63.4273 74.5279 60.0903 72.4042C56.7532 70.2805 54.0923 67.2477 52.4207 63.6627C50.7491 60.0778 50.1364 56.09 50.6547 52.1686C51.173 48.2472 52.8006 44.5555 55.3462 41.5279L55.3652 41.5071C57.6128 38.8342 60.4981 36.7711 63.7542 35.5084C67.0103 34.2458 70.5322 33.8245 73.9943 34.2834C77.4564 34.7423 80.7468 36.0666 83.5616 38.1339C86.3763 40.2012 88.6244 42.9448 90.0981 46.111C91.5718 49.2772 92.2235 52.7638 91.9929 56.2485C91.7623 59.7333 90.6569 63.1036 88.7788 66.048C86.9008 68.9924 84.3108 71.4158 81.2482 73.0942C78.1856 74.7726 74.7493 75.6518 71.2569 75.6505L71.257 75.6504ZM81.752 47.9576L68.1085 61.601L60.762 54.2546C60.4827 53.9809 60.1067 53.8285 59.7157 53.8305C59.3246 53.8325 58.9502 53.9887 58.6737 54.2652C58.3972 54.5417 58.2409 54.9161 58.239 55.3072C58.237 55.6982 58.3894 56.0742 58.6631 56.3535L67.0591 64.7495C67.1969 64.8874 67.3605 64.9968 67.5406 65.0714C67.7207 65.146 67.9137 65.1844 68.1086 65.1844C68.3035 65.1844 68.4965 65.146 68.6766 65.0714C68.8566 64.9968 69.0202 64.8874 69.158 64.7495L83.851 50.0568C84.1247 49.7775 84.2771 49.4015 84.2752 49.0105C84.2732 48.6194 84.117 48.245 83.8405 47.9685C83.5639 47.6919 83.1895 47.5357 82.7984 47.5338C82.4074 47.5318 82.0314 47.6842 81.7521 47.9579L81.752 47.9576Z" fill="#007BB6"/>
</svg>
