<svg width="60" height="73" viewBox="0 0 60 73" fill="none" xmlns="http://www.w3.org/2000/svg">
<path d="M20.1893 2.63107L24.0757 1.13592L27.8233 1L30.3218 1.67961L32.8202 2.90291L37.123 5.75728H46.5615L50.1703 6.43689L53 8.5L55.1672 12.0097L55.8612 15.9515L56 19.6214L55.5836 23.1553L53.7792 29.9515L50.5 36.5L46.5 42.8641H33.9306L33.5142 40.8252L32.265 38.9223L30.2869 38H28.7601L26.7427 38.9515L24.891 42.2136L15.8864 43L14.082 38.3786L12.8328 33.2136L12 25.8738L12.1388 19.8932L13.5268 13.6408L15.7476 7.66019L17.6909 4.6699L20.1893 2.63107Z" fill="white"/>
<path d="M0.25647 42.8428H59.7064V63.4589L52.5891 66.1538L45.1928 68.714L41.5644 69.792L37.6569 70.7352L29.9814 72.4869L22.1664 70.8699L14.7701 68.8487L7.44576 66.2886L0.25647 63.4589V42.8428Z" fill="#007BB6"/>
<path d="M25.1593 0.737878C23.7823 0.933778 22.2191 1.41265 20.9611 2.02937C18.4006 3.27733 16.7257 5.00415 15.2966 7.85558C13.4803 11.4834 12.1331 16.5042 11.7162 21.2421C11.5599 23.0197 11.6046 27.2061 11.7906 28.8604C12.1405 31.8642 12.7732 34.9261 13.6664 37.9299C13.9493 38.8731 14.9616 41.8696 15.1477 42.2977C15.1998 42.421 14.8202 42.4283 7.74878 42.4283C0.39451 42.4283 0.297744 42.4283 0.148872 42.5734C0 42.7185 0 42.8128 0 53.0867C0 58.7896 0.0223308 63.5129 0.0446615 63.5782C0.10421 63.7306 0.327518 63.8322 2.23308 64.6303C11.2994 68.4032 19.4724 70.8846 28.4866 72.5824L29.9083 72.8508L31.1291 72.6187C39.7785 70.9644 48.6215 68.2726 58.4843 64.2965C59.7199 63.7959 59.8465 63.7306 59.9134 63.5274C60.0325 63.2009 60.0251 42.9144 59.9134 42.6967C59.8613 42.6097 59.7869 42.5154 59.7422 42.4863C59.6976 42.4573 56.8541 42.4283 53.4301 42.4283C49.9986 42.4283 47.1924 42.4138 47.1924 42.392C47.1924 42.3702 47.4901 41.9204 47.8474 41.3907C52.0158 35.3251 54.7848 28.5267 55.678 22.2071C55.9162 20.4948 55.9758 19.6459 55.9758 17.9408C55.9758 15.6408 55.7674 13.9793 55.2612 12.2089C54.2861 8.82782 52.0977 6.74548 48.6141 5.89658C46.9169 5.48301 46.5745 5.46125 41.5724 5.46125H36.9574L34.6648 3.95209C31.5683 1.92053 29.9902 1.16596 28.1144 0.817694C27.251 0.658072 25.9856 0.621789 25.1593 0.737878ZM28.5983 1.39088C30.4815 1.877 31.732 2.53726 35.4538 5.0114L36.9574 6.00541L39.7488 5.9256C44.2298 5.795 46.5522 5.89658 48.2717 6.28838C50.1028 6.71646 51.3682 7.34043 52.4922 8.38523C54.4722 10.2281 55.5292 13.5149 55.5292 17.8755C55.5292 24.4055 53.0802 32.1544 48.8448 39.0182C48.1972 40.063 46.8723 42.022 46.649 42.2614L46.5001 42.4283H40.2252H33.9577L33.8758 41.9349C33.2952 38.6046 31.4864 37.2406 28.6653 38.0024C27.0128 38.4522 26.0005 39.5188 25.0402 41.8116L24.802 42.392L20.254 42.4138L15.706 42.4283L15.5943 42.1598C15.3636 41.6302 14.3587 38.6264 14.0312 37.5018C12.736 33.0251 12.1703 29.4989 12.0809 25.3415C11.9842 20.5383 12.6318 16.4026 14.2173 11.73C16.2717 5.67891 18.6983 2.9871 23.3431 1.6158C24.735 1.20223 25.1817 1.14419 26.6108 1.17321C27.6753 1.19498 27.9879 1.23126 28.5983 1.39088ZM31.0025 38.3797C32.067 38.6336 32.9453 39.8308 33.3101 41.5213C33.3771 41.8406 33.444 42.1743 33.4664 42.2614L33.4961 42.4283H29.4022C27.1542 42.4283 25.3082 42.421 25.3082 42.4065C25.3082 42.3049 25.6953 41.456 25.9856 40.9046C26.8639 39.2721 27.8539 38.5393 29.5138 38.2999C29.9828 38.2273 30.5113 38.2563 31.0025 38.3797ZM59.4594 53.1375L59.4371 63.4114L58.3577 63.8467C48.6662 67.7502 40.3145 70.3259 31.7692 72.0237L29.9232 72.3937L28.3824 72.0963C19.5096 70.413 11.5003 67.9751 2.55315 64.253L0.446615 63.3751V53.123V42.8636H29.9604H59.4743L59.4594 53.1375Z" fill="black"/>
<path d="M25.1741 9.05237C24.5414 9.13944 24.2734 9.2265 23.4844 9.6183C21.9287 10.3946 20.9164 11.9256 20.9164 13.5145C20.9164 14.7843 21.6607 16.2209 22.7624 17.077C23.2611 17.4688 24.3404 17.9985 24.9731 18.1653C25.2188 18.2234 25.7696 18.2959 26.2013 18.3177C29.2234 18.4773 31.6351 16.4821 31.6351 13.841C31.6351 11.6934 29.9157 9.74165 27.5337 9.16846C26.9159 9.02335 25.7994 8.9653 25.1741 9.05237ZM27.1839 9.29906C28.7396 9.58928 29.9827 10.4527 30.6824 11.7152C31.851 13.8193 31.0173 16.3369 28.8066 17.3817C27.9506 17.7953 27.437 17.9114 26.4916 17.9114C22.8517 17.9332 20.3879 14.5666 21.884 11.6281C22.0106 11.3887 22.2041 11.0767 22.3307 10.9388L22.554 10.6849L22.4051 11.0114C22.1669 11.5628 22.0701 12.3101 22.1818 12.8398C22.4944 14.4142 23.7226 15.3647 25.3379 15.2776C26.1046 15.2341 26.8043 14.9294 27.3551 14.3925C27.757 14.0007 28.1888 13.2533 28.2558 12.8107L28.3004 12.5495L28.0176 12.5786C27.4146 12.6511 26.9085 12.1432 26.968 11.5265C27.0127 11.1275 27.2062 10.8663 27.6007 10.6849C27.7719 10.6051 27.9134 10.518 27.9134 10.4817C27.9134 10.3366 27.0946 9.59654 26.7224 9.40789C26.246 9.16846 26.3576 9.14669 27.1839 9.29906ZM24.3702 12.3246C24.5489 12.5205 24.5712 12.6003 24.5414 12.8543C24.467 13.3984 23.9236 13.6959 23.4249 13.471C23.0527 13.3041 22.941 12.7454 23.209 12.3972C23.5365 11.9691 24.0055 11.9401 24.3702 12.3246Z" fill="black"/>
<path d="M41.5125 13.2681C39.6144 13.5075 37.8577 14.9732 37.4037 16.7072C37.158 17.6577 37.3367 18.942 37.8577 19.8416C38.3937 20.7849 39.4953 21.7063 40.5821 22.1344C43.2841 23.1864 46.4178 22.1707 47.5642 19.8852C48.971 17.0628 46.7975 13.747 43.2245 13.2681C42.5695 13.181 42.242 13.181 41.5125 13.2681ZM43.9987 13.6164C45.5693 14.0517 46.8049 15.14 47.3334 16.5549C47.5046 17.0047 47.5269 17.1789 47.5195 17.9407C47.5195 18.7025 47.4897 18.8694 47.3185 19.312C46.7975 20.6107 45.6586 21.5757 44.1848 21.9675C43.4776 22.1562 42.3313 22.1779 41.6018 22.011C39.9345 21.6338 38.5723 20.4946 38.014 19.0073C37.7982 18.4268 37.7535 17.2079 37.9247 16.6274C38.0661 16.1486 38.3862 15.5173 38.6616 15.1546C38.8998 14.8498 38.8998 14.8571 38.6914 15.365C38.5574 15.6842 38.5276 15.9164 38.5202 16.5259C38.5202 17.2369 38.5351 17.324 38.7584 17.7738C39.2646 18.8259 40.1503 19.4281 41.2669 19.4861C42.2792 19.5369 43.0533 19.2394 43.7382 18.5429C44.1475 18.1366 44.4006 17.723 44.5421 17.2514C44.6984 16.7435 44.6984 16.7435 44.4453 16.7871C44.1624 16.8451 43.7605 16.7072 43.5446 16.4896C43.4106 16.3517 43.3585 16.1994 43.3362 15.8801C43.3064 15.4883 43.3213 15.4448 43.5372 15.1981C43.6712 15.053 43.8945 14.9006 44.0359 14.8571L44.289 14.77L44.1624 14.5523C43.9763 14.2404 43.4255 13.776 42.9863 13.5728L42.6142 13.3915L43.0682 13.4422C43.3213 13.464 43.7382 13.5438 43.9987 13.6164ZM40.5002 16.3517C40.8128 16.5041 40.9766 16.8959 40.8649 17.2224C40.7086 17.6722 40.1578 17.9044 39.7409 17.6867C39.5772 17.5924 39.3762 17.2442 39.3762 17.0337C39.3762 16.7725 39.5995 16.446 39.8452 16.3445C40.1503 16.2139 40.2322 16.2139 40.5002 16.3517Z" fill="black"/>
<path d="M30.928 24.7247C30.7494 25.2325 30.9504 26.0089 31.3523 26.3644C32.4093 27.3076 34.1139 26.5531 34.0841 25.1672C34.0841 24.906 34.0841 24.906 33.9873 25.2471C33.8534 25.7332 33.7045 25.9146 33.2653 26.1322C32.186 26.6546 31.2407 26.1395 31.0546 24.9278C31.0025 24.5868 30.9876 24.565 30.928 24.7247Z" fill="black"/>
<path d="M6.65472 49.9529C6.5654 49.9674 6.41652 50.0617 6.31976 50.1633C6.18577 50.3084 6.16344 50.3737 6.22299 50.4681C6.28998 50.5696 6.47607 50.5986 7.30231 50.6349C7.93502 50.6712 8.5975 50.751 9.11855 50.8671C12.4607 51.6072 15.4754 53.9652 15.7731 56.0766C16.0262 57.9122 14.3812 59.5955 11.7685 60.1615C11.4633 60.2268 11.1953 60.2558 11.1655 60.2268C11.1358 60.1977 11.0762 60.0236 11.0241 59.8422C10.5998 58.4129 9.11855 56.8965 6.98224 55.7138C6.74404 55.5832 6.55051 55.4671 6.55051 55.4526C6.55051 55.4018 7.30975 54.8722 8.2402 54.27C9.02178 53.7621 10.2351 53.0583 11.1581 52.5794C11.5749 52.3617 11.6047 52.2602 11.3218 52.1223C10.8976 51.9046 10.5775 51.9699 9.87035 52.398C8.96968 52.9567 8.16577 53.5154 6.98968 54.4078L5.96991 55.1842L5.53818 55.0318C4.92781 54.8286 3.80382 54.7778 3.26789 54.9302C2.45653 55.1624 1.86849 55.7646 1.8015 56.4321C1.6824 57.6728 3.31999 59.1602 5.88059 60.1252C7.34697 60.6839 8.63471 60.9306 10.0341 60.9306C10.5924 60.9306 10.7934 60.9523 10.7934 61.0176C10.7934 61.0684 10.8231 61.1555 10.8603 61.2135C10.9199 61.3006 10.9497 61.3006 11.0464 61.228C11.1134 61.17 11.1655 61.0757 11.1655 61.0104C11.1655 60.916 11.2921 60.8653 11.7461 60.7927C14.7087 60.3138 16.7259 58.304 16.376 56.1709C16.1155 54.5965 14.4556 52.739 12.2449 51.5564C10.2574 50.4898 7.68193 49.757 6.65472 49.9529ZM5.13623 55.4236C5.3372 55.4671 5.50841 55.5107 5.50841 55.5252C5.50841 55.5397 5.07668 55.9678 4.55563 56.4829C3.51352 57.4987 3.22322 57.934 3.43909 58.1517C3.5954 58.2968 3.6624 58.246 3.93037 57.7889C4.176 57.3681 4.48119 57.0706 5.47119 56.258L6.14111 55.7138L6.68449 55.9968C8.1881 56.7876 9.76614 58.3113 10.3914 59.5883C10.7487 60.2993 10.7412 60.3211 10.1681 60.3719C9.04411 60.4735 7.29487 60.205 5.9848 59.7334C3.85593 58.957 2.5533 57.9195 2.47887 56.9182C2.44909 56.5917 2.47887 56.4902 2.66496 56.2072C2.91059 55.8372 3.26044 55.5469 3.61029 55.4308C3.90803 55.3293 4.66728 55.322 5.13623 55.4236Z" fill="white"/>
<path d="M55.1495 51.6503C55.0379 51.7591 55.0081 51.8607 55.0379 51.9986C55.0602 52.1001 55.1272 52.4194 55.1942 52.7024L55.3059 53.2248L54.7848 53.9721L54.2638 54.7121L54.167 54.4655C54.1074 54.3276 53.9735 53.9866 53.8618 53.7036C53.7501 53.4207 53.6162 53.1304 53.5641 53.0506C53.4673 52.9273 53.4524 52.9345 53.3035 53.1667C53.2217 53.3046 53.1472 53.4642 53.1472 53.515C53.1472 53.5658 53.2812 53.8632 53.445 54.1825C53.7427 54.7557 54.1893 55.815 54.4573 56.5768C54.5689 56.8816 54.6359 56.9831 54.7625 56.9976C54.889 57.0194 54.9411 56.9759 54.9783 56.8308C55.0379 56.6058 54.9709 56.4027 54.6062 55.5973L54.3456 55.0241L54.5019 54.7629C54.5913 54.6251 54.822 54.2841 55.0156 54.0084L55.3728 53.515L55.6036 53.9576C55.9981 54.7194 56.534 55.1983 56.9956 55.1983C57.4794 55.1983 58.0451 54.6178 58.2163 53.9431C58.3801 53.2973 58.328 51.7156 58.1419 51.7156C58.1046 51.7156 58.06 52.1509 58.0377 52.6733C58.0004 53.7617 57.9111 54.0954 57.5687 54.4509C57.1146 54.9226 56.6085 54.6686 56.2437 53.7834C56.0577 53.3336 55.8269 52.3759 55.8269 52.0566C55.8269 51.8462 55.5664 51.4979 55.4101 51.4979C55.3505 51.4979 55.2389 51.5632 55.1495 51.6503Z" fill="white"/>
<path d="M42.5031 52.927C42.1607 53.2607 42.1458 53.3043 41.982 54.0879C41.8481 54.7336 41.796 54.8787 41.729 54.7917C41.5652 54.5812 41.4014 54.7771 41.0516 55.5825C40.8581 56.0324 40.3519 57.0772 39.9351 57.9188L39.1833 59.4425L38.0295 59.7182C35.789 60.2696 34.2035 60.8573 33.3624 61.4668C32.9232 61.786 32.2905 62.5116 32.1937 62.8163C32.1639 62.8961 32.1044 62.9614 32.0449 62.9614C31.9927 62.9614 31.7322 63.1936 31.4791 63.4838C30.7422 64.2892 30.05 64.6229 29.7746 64.3037C29.6182 64.1223 29.6034 63.5491 29.7299 62.8816C29.7969 62.5406 29.849 62.127 29.849 61.9601C29.849 61.6627 29.8415 61.6554 29.5959 61.6554C29.3131 61.6554 29.0749 61.8803 28.0625 63.092C27.7648 63.462 27.5043 63.745 27.4968 63.7378C27.4819 63.7232 27.5861 63.1501 27.7276 62.4535C28.0253 61.0024 28.0328 60.8863 27.8616 60.7993C27.5861 60.6469 27.3256 60.8646 26.3058 62.069C25.7476 62.722 25.2786 63.2516 25.2637 63.2371C25.2563 63.2226 25.4201 62.7365 25.6434 62.1633C26.1272 60.8791 26.1346 60.8283 25.9337 60.7993C25.6359 60.7557 25.4201 61.0605 25.1967 61.8368C24.899 62.8889 24.8543 62.9687 24.2737 63.4548C23.4401 64.1586 22.785 64.427 22.3012 64.2674C21.996 64.1731 21.8471 63.8829 21.9216 63.5273C22.0109 63.1283 22.4575 62.3737 22.9637 61.7642C23.2316 61.4377 23.4475 61.1112 23.4475 61.0242C23.4475 60.8283 23.1498 60.6179 22.9711 60.6832C22.9041 60.7122 22.651 60.9806 22.4054 61.2926L21.9662 61.8513L21.4228 61.8948C21.1251 61.9239 20.7157 61.9674 20.5147 61.9892L20.15 62.04L20.5668 61.2781C21.0135 60.4655 21.073 60.2769 20.8646 60.2769C20.4552 60.2914 20.3286 60.4365 19.8523 61.474C19.5992 62.0327 19.227 62.7437 19.0335 63.0557C18.6315 63.7015 18.5794 63.9772 18.8697 63.9772C19.0037 63.9772 19.1228 63.8901 19.2791 63.6725C19.3982 63.5128 19.5024 63.346 19.5024 63.3024C19.5024 63.2444 19.9267 62.381 19.9862 62.3229C20.0235 62.2794 21.3707 62.0907 21.5941 62.0907H21.795L21.6015 62.5406C21.4824 62.8381 21.4005 63.1863 21.3782 63.5491C21.3484 64.0788 21.3559 64.1078 21.5568 64.3327C21.9439 64.7535 22.5989 64.7898 23.3359 64.4343C23.6857 64.2674 23.8197 64.1803 24.4003 63.7232L24.6459 63.5273L24.4524 63.9409C24.244 64.4053 24.2142 64.7027 24.3705 64.7027C24.4226 64.7027 24.6683 64.4488 24.9064 64.1368C26.0825 62.6131 27.1172 61.4377 27.214 61.5321C27.2437 61.5611 27.1619 62.1198 27.0279 62.7655C26.7599 64.086 26.7376 64.7173 26.9683 64.7608C27.1693 64.7971 27.3554 64.6084 27.8839 63.8321C28.1444 63.4548 28.5091 62.9977 28.6952 62.8163L29.0302 62.4971V63.3097C29.0302 64.2021 29.1195 64.5286 29.4098 64.7318C29.8341 65.022 30.5338 64.71 31.4121 63.8393L31.9704 63.2879V63.9409C31.9704 64.4778 32.0002 64.6447 32.1416 64.8986C32.4468 65.4718 33.1242 65.7621 33.9802 65.6968C34.9478 65.6242 36.0644 65.0655 36.7715 64.2892C37.2405 63.7813 38.1263 62.4318 38.8855 61.0895C39.2428 60.4437 39.5926 59.8996 39.6671 59.8851C39.8904 59.8125 41.1111 59.6239 41.3196 59.6239C41.5429 59.6239 41.5354 59.5731 41.6471 61.1475C41.8183 63.4113 42.3468 64.1658 43.2028 63.3532C43.4708 63.0993 43.5452 62.8671 43.3889 62.78C43.3517 62.751 43.1879 62.8598 43.0316 63.0267C42.8753 63.1936 42.7115 63.3242 42.6669 63.3242C42.4138 63.3242 42.2128 62.3302 42.1532 60.763L42.1086 59.544L42.518 59.5948C42.8529 59.6311 42.9348 59.6239 42.972 59.5223C43.0316 59.3844 42.8529 59.2828 42.4361 59.2175C42.1384 59.174 42.1309 59.1668 42.1309 58.8693C42.1384 57.469 42.5626 54.6901 42.9944 53.297C43.0911 52.9778 43.1507 52.6875 43.1284 52.6513C43.039 52.5134 42.8381 52.6005 42.5031 52.927ZM41.6917 55.9816C41.6471 56.3298 41.5875 57.1932 41.5578 57.897L41.5131 59.1885L41.059 59.1958C40.806 59.1958 40.4263 59.2248 40.2105 59.2538C39.9425 59.2901 39.8308 59.2828 39.8532 59.2321C41.327 55.9743 41.729 55.1254 41.7438 55.227C41.7587 55.2923 41.7364 55.6333 41.6917 55.9816ZM38.6622 60.3639C38.424 60.821 37.4191 62.4172 37.0767 62.8889C36.4812 63.7087 35.7592 64.3545 35.0521 64.6955C33.9579 65.2179 33.1688 65.2397 32.6776 64.7608C32.3128 64.4053 32.283 63.6507 32.6031 62.9904C32.8488 62.4898 33.5782 61.815 34.2035 61.4958C34.4938 61.3507 35.1786 61.0822 35.7294 60.9008C36.6822 60.5888 38.7143 60.0519 38.7664 60.0955C38.7813 60.11 38.7366 60.2261 38.6622 60.3639Z" fill="white"/>
<path d="M50.8625 54.3348C50.5722 54.5162 50.2744 55.0749 50.1628 55.6698C50.0586 56.214 50.1181 57.2298 50.2744 57.6724C50.3787 57.9771 50.3787 58.0424 50.2744 58.3979C50.0288 59.196 49.6938 59.6749 49.2621 59.8345C48.5773 60.0885 48.1754 59.1453 48.2647 57.491C48.2945 56.896 48.2796 56.5986 48.2275 56.5333C48.1232 56.4099 47.7585 56.4027 47.6543 56.526C47.5426 56.6566 47.0737 58.2456 46.8281 59.3629C46.4857 60.8648 46.173 61.438 45.7413 61.3364C45.5031 61.2784 45.2724 60.8213 45.2054 60.2771C45.1533 59.8636 45.0565 59.7475 44.7587 59.7837C44.4536 59.82 44.3568 60.0522 44.4684 60.5166C44.5801 60.9809 44.6918 61.1913 44.9821 61.4888C45.2575 61.779 45.5329 61.8443 45.8753 61.6992C46.1507 61.5904 46.5303 61.1478 46.7164 60.7125C46.8132 60.4948 47.1407 59.2831 47.4012 58.2093L47.4682 57.9191L47.5203 58.2093C47.7734 59.6386 48.2349 60.3497 48.9048 60.3497C49.5747 60.3497 50.3266 59.5153 50.5126 58.5721C50.5647 58.3036 50.6466 58.2456 50.7211 58.427C50.8476 58.7607 51.6068 58.9276 52.0162 58.7244C52.768 58.3471 53.6687 56.7219 53.6687 55.7497C53.6687 55.3288 53.5422 55.4522 53.4156 55.9963C53.1328 57.2298 52.3214 58.3907 51.7483 58.3907C51.5026 58.3907 51.0932 57.9699 50.9965 57.6143C50.922 57.3459 50.9295 57.2878 51.0858 57.0629C51.2868 56.7727 51.6441 55.7714 51.7111 55.3071C51.7632 54.8935 51.6887 54.5017 51.5026 54.3203C51.324 54.1462 51.1602 54.1462 50.8625 54.3348ZM51.2868 54.9008C51.458 55.22 51.2793 56.2358 50.9593 56.7945C50.8625 56.9468 50.8476 56.9613 50.8029 56.8525C50.7136 56.6203 50.7955 55.0096 50.9072 54.8862C51.0411 54.7266 51.19 54.7339 51.2868 54.9008Z" fill="white"/>
<path d="M33.3475 58.7826C33.3475 59.1889 33.2284 59.4066 32.9232 59.5227C32.5957 59.6605 32.4096 59.6388 30.6231 59.2905C29.2907 59.0366 28.6283 58.993 27.9956 59.1236C27.5192 59.218 26.9832 59.5517 26.8269 59.8564C26.5738 60.3353 26.5366 60.894 26.7674 60.7053C26.8269 60.6618 26.8716 60.5457 26.8716 60.4441C26.8716 60.1394 27.0725 59.8782 27.4075 59.7258C27.8765 59.5227 29.2163 59.5372 30.0351 59.7621C31.4196 60.1394 31.8216 60.2192 32.2831 60.1902C32.6701 60.1684 32.7892 60.1249 32.9753 59.9508C33.0944 59.8347 33.2656 59.6098 33.3475 59.4429C33.5038 59.1309 33.5485 58.5359 33.4219 58.5359C33.3847 58.5359 33.3475 58.6448 33.3475 58.7826Z" fill="white"/>
<path d="M17.3812 59.4067C16.9196 59.5881 16.086 60.1903 15.751 60.5894C15.2374 61.2061 14.9992 61.9026 15.1183 62.454C15.2448 63.0272 16.0264 63.3392 16.9494 63.1796C17.7905 63.0417 18.9071 62.5484 19.2123 62.1928C19.3984 61.9752 19.2048 62.026 18.5275 62.3597C16.9792 63.1361 15.7063 63.107 15.7063 62.3089C15.7063 62.1493 15.7808 61.8808 15.8627 61.7067C16.0115 61.4092 16.0562 61.3802 16.4433 61.2931C16.674 61.2424 17.1355 61.0755 17.4779 60.9086C18.4605 60.437 18.8922 59.8638 18.587 59.4502C18.4381 59.2471 17.8427 59.2253 17.3812 59.4067ZM18.1478 59.8638C18.1925 60.096 17.5151 60.6619 16.9122 60.8941C16.6145 61.0102 16.3539 61.0755 16.3242 61.0465C16.2944 61.0247 16.473 60.7998 16.7187 60.5603C17.4854 59.7985 18.0808 59.5155 18.1478 59.8638Z" fill="white"/>
</svg>
